<?xml version="1.0" encoding="utf-8"?>
<svg width="911.22046px" height="911.22034px" viewBox="0 0 911.22046 911.22034" version="1.1" xmlns:xlink="http://www.w3.org/1999/xlink" xmlns="http://www.w3.org/2000/svg">
  <path d="M139.256 704.757L139.256 139.635Q139.256 139.635 139.256 139.635L709.793 139.635Q711.389 139.635 712.983 139.713Q714.576 139.791 716.164 139.948Q717.752 140.104 719.331 140.338Q720.909 140.572 722.474 140.884Q724.039 141.195 725.587 141.583Q727.135 141.97 728.662 142.434Q730.189 142.897 731.691 143.434Q733.193 143.972 734.668 144.582Q736.142 145.193 737.584 145.875Q739.027 146.558 740.434 147.31Q741.841 148.062 743.21 148.882Q744.579 149.703 745.905 150.589Q747.232 151.476 748.514 152.426Q749.795 153.377 751.029 154.389Q752.262 155.401 753.444 156.473Q754.627 157.544 755.755 158.673Q756.883 159.801 757.955 160.983Q759.027 162.166 760.039 163.399Q761.051 164.633 762.002 165.914Q762.952 167.196 763.839 168.523Q764.725 169.849 765.546 171.218Q766.366 172.587 767.118 173.994Q767.87 175.401 768.552 176.844Q769.235 178.286 769.845 179.76Q770.456 181.234 770.993 182.737Q771.531 184.239 771.994 185.766Q772.457 187.293 772.845 188.841Q773.233 190.389 773.544 191.954Q773.856 193.519 774.09 195.097Q774.324 196.676 774.48 198.264Q774.637 199.852 774.715 201.445Q774.793 203.039 774.793 204.635L774.793 768.757Q774.793 768.757 774.793 768.757L203.256 768.757Q201.685 768.757 200.115 768.68Q198.546 768.603 196.983 768.449Q195.419 768.295 193.865 768.065Q192.311 767.834 190.77 767.528Q189.229 767.221 187.705 766.839Q186.181 766.458 184.677 766.001Q183.174 765.545 181.695 765.016Q180.215 764.487 178.764 763.885Q177.312 763.284 175.892 762.613Q174.472 761.941 173.086 761.2Q171.701 760.46 170.353 759.652Q169.005 758.844 167.699 757.971Q166.393 757.098 165.131 756.163Q163.869 755.227 162.654 754.23Q161.44 753.233 160.276 752.178Q159.112 751.123 158.001 750.012Q156.89 748.901 155.835 747.737Q154.78 746.573 153.783 745.359Q152.786 744.144 151.85 742.882Q150.914 741.62 150.042 740.314Q149.169 739.007 148.361 737.66Q147.553 736.312 146.813 734.927Q146.072 733.541 145.4 732.121Q144.729 730.701 144.127 729.249Q143.526 727.797 142.997 726.318Q142.467 724.839 142.011 723.335Q141.555 721.832 141.174 720.308Q140.792 718.784 140.485 717.243Q140.179 715.702 139.948 714.148Q139.718 712.594 139.564 711.03Q139.41 709.467 139.333 707.898Q139.256 706.328 139.256 704.757Z" transform="rotate(45 457.02 454.2)" id="Прямоугольник-4" fill="#D7FF00" stroke="none" />
</svg>