<?xml version="1.0" encoding="utf-8"?>
<svg width="894.2499px" height="894.2499px" viewBox="0 0 894.2499 894.2499" version="1.1" xmlns:xlink="http://www.w3.org/1999/xlink" xmlns="http://www.w3.org/2000/svg">
  <path d="M129.356 761.686L129.356 195.564Q129.356 194.017 129.432 192.472Q129.508 190.928 129.66 189.389Q129.811 187.849 130.038 186.32Q130.265 184.79 130.567 183.273Q130.868 181.756 131.244 180.256Q131.62 178.756 132.069 177.276Q132.518 175.796 133.039 174.34Q133.56 172.883 134.152 171.455Q134.744 170.026 135.405 168.628Q136.066 167.23 136.795 165.866Q137.524 164.502 138.319 163.175Q139.114 161.849 139.974 160.563Q140.833 159.277 141.754 158.035Q142.675 156.792 143.656 155.597Q144.638 154.401 145.676 153.255Q146.715 152.109 147.808 151.016Q148.902 149.922 150.048 148.884Q151.194 147.845 152.389 146.864Q153.585 145.883 154.827 144.962Q156.069 144.04 157.355 143.181Q158.641 142.322 159.968 141.527Q161.294 140.732 162.658 140.003Q164.022 139.274 165.42 138.612Q166.818 137.951 168.247 137.359Q169.676 136.767 171.132 136.246Q172.588 135.725 174.068 135.276Q175.548 134.827 177.048 134.452Q178.549 134.076 180.065 133.774Q181.582 133.472 183.112 133.246Q184.642 133.019 186.181 132.867Q187.72 132.715 189.265 132.64Q190.81 132.564 192.356 132.564L764.894 132.564Q764.894 132.564 764.894 132.564L764.894 761.686Q764.894 761.686 764.894 761.686L129.356 761.686Q129.356 761.686 129.356 761.686Z" transform="rotate(135 447.12 447.13)" id="Прямоугольник-4" fill="#D7FF00" stroke="none" />
</svg>