<?xml version="1.0" encoding="utf-8"?>
<svg width="86.14392px" height="74.10721px" viewBox="0 0 86.14392 74.10721" version="1.1" xmlns:xlink="http://www.w3.org/1999/xlink" xmlns="http://www.w3.org/2000/svg">
  <path d="M65.3566 0.365601C71.5525 13.483 66.8142 31.5077 58.363 42.4794C49.1404 54.4555 34.2723 61.1654 19.2891 60.8429C19.3064 60.8621 19.3217 60.8841 19.3389 60.9034C22.0822 63.3703 24.8254 65.8372 27.5672 68.305C28.9327 69.532 27.0413 71.8396 25.5361 70.8004C22.4126 68.6457 19.677 66.1764 17.2441 63.3689L13.64 60.1268C12.9317 59.4887 13.1849 58.4637 13.703 57.8334C16.3487 54.6156 18.5016 51.0815 20.1554 47.2592C20.9766 45.3609 24.0878 46.2912 23.2585 48.208C21.8127 51.5506 20.0633 54.6325 17.9691 57.5429C32.4803 58.269 47.0688 52.0306 56.0207 40.406C60.082 35.1299 62.9212 28.9266 64.3863 22.4375C66.0646 15.0049 65.2904 8.12775 64.5534 0.663177C64.5079 0.217285 65.1287 -0.116364 65.3566 0.365601L65.3566 0.365601Z" id="Фигура" fill="#FFFFFF" fill-opacity="0.039215688" stroke="none" />
</svg>