<?xml version="1.0" encoding="utf-8"?>
<svg width="24.999756px" height="24.106262px" viewBox="0 0 24.999756 24.106262" version="1.1" xmlns:xlink="http://www.w3.org/1999/xlink" xmlns="http://www.w3.org/2000/svg">
  <path d="M18.6201 24.1063C15.6382 24.1063 11.7505 21.7733 7.0647 17.1697C2.35974 12.5473 -0.0178223 8.71512 0.00012207 5.77893C0.0108643 3.83875 1.0459 2.84509 1.43481 2.47235C1.45514 2.44766 1.52454 2.38065 1.54846 2.35712C3.26556 0.669708 4.44537 -0.0240479 5.57257 0.000640869C6.90918 0.01828 7.86163 1.0025 9.06659 2.24774C9.36456 2.55466 9.6864 2.8898 10.0466 3.24255C11.7924 4.95935 11.2958 6.35983 10.895 7.48398L10.8945 7.48532C10.4591 8.71118 10.0833 9.76956 12.3393 11.9864C14.5961 14.2042 15.6718 13.8337 16.9186 13.4022L16.9243 13.4003C18.0683 13.0078 19.4882 12.5208 21.2347 14.2347C21.5901 14.584 21.9251 14.8967 22.2362 15.1872C23.5082 16.3772 24.5133 17.3167 24.53 18.6337C24.5431 19.7555 23.8491 20.9008 22.1357 22.5847L21.377 22.079L22.0197 22.694C21.6403 23.0762 20.6316 24.0945 18.6561 24.1063L18.6201 24.1063L18.6201 24.1063ZM23.2112 9.25092C23.2627 9.70126 23.6504 10.0341 24.1015 10.0341C24.135 10.0341 24.1697 10.0317 24.2032 10.0282C24.695 9.97409 25.0492 9.53784 24.9941 9.05338C24.4473 4.25928 20.6577 0.539948 15.7781 0.00726318C15.2803 -0.053894 14.8411 0.302399 14.7873 0.785706C14.7322 1.27017 15.0876 1.70526 15.5794 1.75934C19.6203 2.20029 22.7577 5.28113 23.2112 9.25092L23.2112 9.25092ZM2.82281 3.60004C2.8252 3.60004 2.76538 3.66116 2.69 3.73407C2.40045 4.01041 1.80096 4.58542 1.79498 5.78836C1.7854 7.47104 2.91138 10.5954 8.33307 15.9221C13.7284 21.223 16.9031 22.3425 18.6201 22.3425L18.6451 22.3425C19.8693 22.3354 20.4533 21.7463 20.7345 21.4629C20.8195 21.3771 20.8889 21.3124 20.9379 21.2736C22.1309 20.0942 22.741 19.2181 22.7352 18.6549C22.7279 18.0811 22.0016 17.4037 20.9977 16.4642C20.6783 16.1667 20.3311 15.841 19.965 15.4811C19.0149 14.551 18.5472 14.7098 17.5121 15.0673L17.512 15.0673C16.0821 15.5599 14.1233 16.2349 11.0709 13.2328C8.01831 10.2343 8.70111 8.30972 9.20001 6.9035L9.20007 6.90347L9.20062 6.90192L9.20129 6.89999L9.20129 6.89996C9.56213 5.88535 9.72644 5.42322 8.7782 4.49017C8.40729 4.12564 8.07343 3.77994 7.76593 3.46243C6.8158 2.48175 6.13019 1.77271 5.54987 1.76447L5.54028 1.76447C4.9671 1.76447 4.07684 2.36652 2.81683 3.60474C2.82043 3.6012 2.82166 3.60004 2.82281 3.60004L2.82281 3.60004ZM18.9859 9.33414C19.0696 9.7551 19.4442 10.0467 19.8654 10.0467C19.9228 10.0467 19.9802 10.0408 20.0388 10.0302C20.5247 9.93735 20.8417 9.47525 20.7472 8.99548C20.2626 6.54733 18.3397 4.65887 15.8497 4.18381C15.3711 4.08975 14.8925 4.40253 14.798 4.8811C14.7034 5.35968 15.0205 5.82181 15.5075 5.9147C17.276 6.25217 18.6413 7.59384 18.9859 9.33414L18.9859 9.33414Z" id="Вектор" fill="#000000" fill-rule="evenodd" stroke="none" />
</svg>