<?xml version="1.0" encoding="utf-8"?>
<svg width="55.826355px" height="50.38501px" viewBox="0 0 55.826355 50.38501" version="1.1" xmlns:xlink="http://www.w3.org/1999/xlink" xmlns="http://www.w3.org/2000/svg">
  <path d="M23.266 0.00308228C21.4255 0.155914 20.4551 2.28922 21.5179 3.84586C22.0778 4.66617 22.6421 4.95523 23.5853 4.90543C24.5905 4.8522 25.2336 4.39322 25.6758 3.4147C25.998 2.70132 26.0018 2.39566 25.698 1.59097C25.4069 0.820465 25.1799 0.557281 24.576 0.291168C24.1599 0.107574 23.5704 -0.0218201 23.266 0.00308228L23.266 0.00308228ZM8.60083 4.68195C9.01062 3.77472 9.73877 3.30695 10.7195 3.32062C11.7328 3.33429 12.1648 3.55988 12.7098 4.3587C14.1177 6.42072 12.0017 8.98322 9.73621 7.95978C8.38525 7.34943 7.95581 6.10968 8.60083 4.68195L8.60083 4.68195ZM33.7596 7.47806C33.145 5.85062 34.3131 4.13626 36.0321 4.14261C37.4529 4.14798 38.5824 5.40042 38.4399 6.81155C38.3337 7.86282 37.8282 8.51468 36.8263 8.8931C36.1282 9.15677 35.8284 9.13821 35.0387 8.78128C34.2402 8.42044 34.0375 8.2139 33.7596 7.47806L33.7596 7.47806ZM32.8107 9.77695L31.5793 11.2262C29.8256 13.2906 27.698 14.9439 25.7538 15.7535C23.8047 16.5645 22.7358 16.6622 22.4401 16.0558C22.1302 15.4205 22.5168 15.0064 23.6066 14.8062C24.1794 14.7008 25.04 14.4122 25.5184 14.1646C26.0197 13.9049 26.2581 13.3194 26.0806 12.7838L25.7971 11.9283C25.3405 10.5494 24.8438 8.22861 24.636 6.50156C24.6322 6.46933 24.207 6.46298 23.691 6.4874C23.1752 6.51181 22.5076 6.4205 22.2074 6.28476C21.9055 6.14853 21.5502 6.28232 21.4128 6.58359L20.4807 8.62851C19.8315 10.0533 19.0435 11.5807 18.7299 12.0221C18.4159 12.464 18.1962 12.9273 18.241 13.0528C18.2858 13.1778 18.8188 13.5655 19.4253 13.9142C20.6415 14.6143 20.9244 14.9752 20.6797 15.5167C20.0149 16.9889 16.1393 13.9278 13.7527 10.046L13.6501 9.879C13.3696 9.42294 12.7935 9.24667 12.3058 9.46786C11.8362 9.68076 11.1379 9.84531 10.7539 9.8331C10.3698 9.82089 10.0316 9.86679 10.0024 9.93515C9.97327 10.0035 9.85974 10.8346 9.75 11.7823C9.35657 15.1837 8.04297 19.962 6.05725 25.2164C5.59729 26.4332 6.16248 27.7979 7.34814 28.3336L18.6035 33.4185L19.5966 33.8746L30.2219 38.756L34.0275 40.504L37.4041 41.9654L38.563 42.4669C39.8142 43.0084 41.2714 42.4947 41.9065 41.2882C44.3749 36.5997 47.2223 32.2716 49.5027 29.7408C50.1414 29.0323 50.6901 28.3976 50.722 28.3307C50.7538 28.2638 50.5649 27.9796 50.3018 27.6993C50.0389 27.419 49.7007 26.7862 49.55 26.2935C49.3937 25.7809 48.8807 25.4654 48.353 25.5562L48.1599 25.5894C44.9464 26.1441 42.0203 25.9166 39.8563 24.943C36.1798 23.2887 34.5938 18.8531 35.5059 12.7779L35.5542 12.4547C35.6913 11.5416 35.2094 10.6476 34.3713 10.2599C33.5796 9.89365 32.8925 9.68124 32.8107 9.77695L32.8107 9.77695ZM46.6084 11.0376C45.8037 11.3413 45.5771 11.5459 45.2549 12.2593C44.8127 13.2383 44.8936 14.0239 45.5181 14.8135C46.1041 15.5542 46.6941 15.7866 47.6796 15.6646C50.2441 15.3472 50.6719 12.0718 48.2896 10.9956C47.7377 10.7461 47.3546 10.7559 46.6084 11.0376L46.6084 11.0376ZM11.5058 16.2101C11.9456 15.5802 13.1408 15.0035 13.9437 15.0333C15.8817 15.1046 17.0728 17.233 16.226 19.1115C15.8956 19.8444 15.6824 20.0265 14.737 20.3834C13.737 20.7609 13.5374 20.757 12.612 20.3385C11.7145 19.9332 11.5466 19.7614 11.2316 18.9274C10.822 17.8424 10.8991 17.0787 11.5058 16.2101L11.5058 16.2101ZM42.1714 16.0063C41.3605 16.5386 39.8494 17.3389 38.8135 17.7847L38.4545 17.9395C37.6045 18.3057 37.1976 19.2798 37.5349 20.1416C38.306 22.1113 39.2791 23.064 41.2699 23.7969C42.041 24.0811 42.7821 24.27 42.9169 24.2168C43.0519 24.1636 43.2626 23.6904 43.3871 23.1616C43.5111 22.6343 44.1362 21.0332 44.7761 19.6045L45.6947 17.5532C45.83 17.251 45.6953 16.896 45.3934 16.7598C45.0933 16.624 44.5815 16.1807 44.2563 15.7744C43.9312 15.3682 43.6608 15.0366 43.6554 15.0376C43.6499 15.0386 42.9822 15.4746 42.1714 16.0063L42.1714 16.0063ZM13.3505 16.7114C12.4951 17.0341 12.4197 18.601 13.2416 18.9726C13.7211 19.1889 14.7058 18.8252 14.9193 18.3525C15.2787 17.5571 14.1731 16.4008 13.3505 16.7114L13.3505 16.7114ZM25.763 20.0549C25.9588 19.4475 26.4206 18.9626 27.0175 18.7371L28.0518 18.3464C29.8847 17.6545 30.0926 17.6272 30.8692 17.9778C31.6354 18.324 31.7703 18.5159 32.4374 20.2063C33.1469 22.0051 33.1548 22.0837 32.7211 23.0437C32.2919 23.9934 32.2083 24.0559 30.4958 24.7024C28.7892 25.3469 28.6766 25.3567 27.7414 24.9343C26.8087 24.5129 26.738 24.4182 26.1097 22.7546C25.5351 21.2332 25.4918 20.8958 25.763 20.0549L25.763 20.0549ZM28.63 19.7617C27.8707 20.0488 27.2031 20.3857 27.1465 20.5112C27.0897 20.6367 27.2286 21.2983 27.4553 21.981C27.7512 22.8726 28.0193 23.2915 28.4049 23.4658C28.7906 23.6401 29.2822 23.564 30.1466 23.1968C30.8088 22.9155 31.3972 22.5825 31.4539 22.457C31.5941 22.1465 30.5764 19.4961 30.2623 19.354C30.124 19.2915 29.3894 19.4751 28.63 19.7617L28.63 19.7617ZM52.4087 27.2368C50.1173 26.2017 50.62 22.9214 53.1173 22.6123C54.0955 22.4912 54.4618 22.6299 55.1725 23.3916C55.8633 24.1324 56.0088 24.9844 55.5994 25.8907C54.9663 27.292 53.7068 27.8233 52.4087 27.2368L52.4087 27.2368ZM17.8123 25.6223C18.0483 24.926 19.0557 24.2839 19.861 24.3161C20.6816 24.3493 21.1632 24.6486 21.6426 25.4245C22.4077 26.6628 21.902 28.3078 20.8961 27.8532C20.549 27.6965 20.3944 27.4196 20.3671 26.9069C20.3163 25.9494 19.74 25.697 19.113 26.3566C18.7103 26.7805 18.5482 26.8127 18.1165 26.5549C17.6931 26.3019 17.6385 26.1345 17.8123 25.6223L17.8123 25.6223ZM39.7227 29.7263C40.2074 28.655 41.2327 27.9294 42.2406 27.9441C43.2723 27.9587 43.8961 28.2629 44.4948 29.0432C45.0391 29.7531 45.2384 31.0822 44.9097 31.8098C44.5867 32.5251 43.6458 33.2927 42.8514 33.4885C42.3236 33.6194 41.8489 33.5471 41.1444 33.2287C40.2725 32.8347 40.1248 32.6711 39.7521 31.6843C39.3953 30.739 39.391 30.4587 39.7227 29.7263L39.7227 29.7263ZM16.636 34.18C4.29724 28.6051 2.8894 27.9691 1.86157 28.3521C1.70398 28.4112 1.55518 28.4937 1.37732 28.5865C0.458862 29.0645 -0.195313 30.5128 0.0531006 31.5177C0.0980225 31.6993 0.126709 31.8536 0.177368 32.0006C0.550293 33.0802 2.11438 33.7491 20.0906 41.8697C20.8039 42.192 21.4913 42.5026 22.1539 42.802C38.188 50.047 39.6442 50.705 40.6592 50.2882C40.8027 50.2296 40.9375 50.149 41.1035 50.0626C42.0078 49.5924 42.676 48.1363 42.4353 47.1617C42.1205 45.8873 41.8636 45.7013 37.5641 43.6344L17.5737 34.6036C17.2543 34.4593 16.9418 34.3181 16.636 34.18L16.636 34.18ZM24.4688 32.1786C23.0049 31.5169 22.3378 29.8817 23.3726 29.4906C23.84 29.3143 24.348 29.5765 24.4818 30.0628C24.5429 30.2845 24.8356 30.576 25.1323 30.7103C25.4289 30.8441 25.841 30.8709 26.048 30.7704C26.5014 30.5492 27.0338 30.7572 27.2103 31.2245C27.601 32.2596 25.9328 32.8397 24.4688 32.1786L24.4688 32.1786ZM41.2069 31.1352C40.9457 30.4433 41.1281 29.9819 41.7736 29.7007C42.3252 29.4599 43.2314 29.7881 43.424 30.2978C43.6063 30.7807 43.152 31.6762 42.6235 31.8759C42.015 32.1059 41.4647 31.8178 41.2069 31.1352L41.2069 31.1352ZM30.0759 32.0003C29.0594 31.5413 29.9711 30.0804 31.4318 29.8279C32.6054 29.6253 33.4888 30.1834 33.8666 31.366C34.2408 32.5369 33.7344 33.4993 32.8875 33.2278C32.4085 33.0745 32.3255 32.9314 32.3775 32.3489C32.4582 31.4427 31.8875 31.177 31.1356 31.7718C30.7328 32.0901 30.423 32.157 30.0759 32.0003L30.0759 32.0003Z" id="Вектор" fill="#D7FF00" stroke="none" />
</svg>