<?xml version="1.0" encoding="utf-8"?>
<svg width="141px" height="137px" viewBox="0 0 141 137" version="1.1" xmlns:xlink="http://www.w3.org/1999/xlink" xmlns="http://www.w3.org/2000/svg">
  <defs>
    <filter filterUnits="userSpaceOnUse" color-interpolation-filters="sRGB" id="filter_1">
      <feFlood flood-opacity="0" result="BackgroundImageFix" />
      <feColorMatrix in="SourceAlpha" type="matrix" values="0 0 0 0 0 0 0 0 0 0 0 0 0 0 0 0 0 0 128 0" />
      <feOffset dx="0" dy="0" />
      <feGaussianBlur stdDeviation="9.5" />
      <feColorMatrix type="matrix" values="0 0 0 0 0.84313726 0 0 0 0 1 0 0 0 0 0 0 0 0 0.16078432 0" />
      <feBlend mode="normal" in2="BackgroundImageFix" result="effect0_dropShadow" />
      <feBlend mode="normal" in="SourceGraphic" in2="effect0_dropShadow" result="shape" />
    </filter>
  </defs>
  <path d="M54.1016 35.9766C55.4073 33.3543 58.1151 30.9883 60.755 30.1627C62.6099 29.583 63.8326 29.5187 73.2148 29.5017C81.9156 29.4866 83.7782 29.5651 84.5985 29.9831C85.1373 30.2582 85.5956 30.6639 85.6158 30.8852C85.6359 31.1056 85.6738 32.0105 85.6987 32.8947C85.7414 34.3756 85.8241 34.5298 86.7422 34.8267C88.3319 35.3411 89.5317 36.3246 90.2397 37.693C90.8316 38.8372 90.8918 39.5748 90.8467 45.1229C90.8103 49.5571 90.7372 50.5898 90.5852 48.8091C90.3184 45.6884 89.0211 43.243 86.8486 41.7668C85.3828 40.7701 78.5794 38.2509 76.2269 37.8339C75.3036 37.6693 74.2019 37.8972 71.5622 38.7965C68.4098 39.8698 67.7849 39.9729 64.4381 39.9729C60.3077 39.9729 58.4536 40.4344 56.6328 41.9143C55.0782 43.1777 53.6282 45.9012 53.3195 48.1377C53.1545 49.3301 53.0848 47.853 53.1193 43.9068C53.1716 37.9814 53.1941 37.7989 54.1016 35.9766L54.1016 35.9766ZM64.7795 42.8938C68.9209 42.7236 69.7841 42.5827 72.2842 41.6739C73.5578 41.2105 74.335 40.9278 75.1293 40.8682C76.378 40.7746 77.6691 41.2351 80.9966 42.4229L81.0235 42.4323C87.4232 44.7161 87.5754 44.9837 87.5676 53.9731C87.5609 61.281 87.1972 63.6678 85.5559 67.18C84.452 69.5422 83.4884 70.6004 79.7624 73.5414C76.6743 75.9793 74.9045 76.7982 72.3811 76.958C70.6137 77.0696 70.0178 76.9476 68.2267 76.107C65.2814 74.7235 60.8866 71.4241 59.5184 69.5687C58.882 68.7063 57.9471 66.8197 57.4406 65.3776C56.5565 62.8603 56.5151 62.4508 56.3986 55.1712C56.2847 48.0192 56.3168 47.5124 56.9657 46.2584C57.3442 45.5265 58.204 44.5137 58.8766 44.0078C60.0457 43.1274 60.3055 43.0782 64.7795 42.8938L64.7795 42.8938ZM62.9781 77.1722C62.9781 77.4398 64.9972 78.9916 67.4652 80.62L71.9521 83.5818L76.439 80.62C78.907 78.9916 80.926 77.4398 80.926 77.1722C80.926 76.5197 80.8987 76.5291 79.0295 77.7689C74.4364 80.8177 69.0687 80.6474 64.2563 77.2998C63.1912 76.5594 62.9781 76.5386 62.9781 77.1722L62.9781 77.1722ZM58.5992 81.6461C58.5354 81.3832 58.9719 81.0211 59.6539 80.7695C60.2937 80.535 61.0087 80.3317 61.2424 80.3175C61.6893 80.291 69.625 85.4174 69.625 85.7323C69.625 86.0179 64.8604 92.4209 64.6475 92.4209C64.4294 92.4209 58.7631 82.3279 58.5992 81.6461L58.5992 81.6461ZM74.5345 85.4819C74.7174 85.3013 76.4917 84.0625 78.4781 82.7301C82.2279 80.2127 82.547 80.1201 84.6938 80.9267L85.6364 81.2813L84.2355 83.8195C80.8685 89.9199 79.4181 92.4202 79.2484 92.4211C79.1479 92.4211 77.9717 90.9336 76.6339 89.1151C75.0118 86.9108 74.3125 85.7003 74.5345 85.4819L74.5345 85.4819ZM34.9177 91.5965C35.8849 89.5861 37.3315 88.7879 45.1074 85.9727C49.1779 84.4994 52.6205 83.2823 52.7574 83.2682C53.1613 83.2275 53.0789 83.4422 51.5112 86.5212C50.6885 88.1364 50.0154 89.7506 50.0154 90.109C50.0154 91.0225 50.9982 91.4386 53.1597 91.4386L55.0179 91.4386L54.5111 92.405C54.2321 92.9374 54.0039 93.6401 54.0039 93.9673C54.0039 94.3247 56.7809 97.0463 60.9607 100.785C64.7872 104.209 67.928 107.119 67.9406 107.255C67.953 107.39 60.3557 107.5 51.0574 107.5C34.4572 107.5 34.1355 107.488 33.2756 106.821C32.6555 106.34 32.4009 105.838 32.4038 105.099C32.4108 103.16 34.34 92.7965 34.9177 91.5965L34.9177 91.5965ZM90.8969 83.3777C90.8969 83.4911 91.5699 84.9049 92.3926 86.5201C93.2153 88.1362 93.8884 89.7504 93.8884 90.1079C93.8884 91.0214 92.9056 91.4374 90.7441 91.4374L88.886 91.4374L89.3927 92.4048C89.6715 92.9363 89.8999 93.6465 89.8999 93.9832C89.8999 94.3633 87.2639 96.9478 82.9451 100.801C79.12 104.215 75.9791 107.118 75.9652 107.253C75.9518 107.389 83.5479 107.499 92.8462 107.499C109.446 107.499 109.768 107.487 110.628 106.82C111.248 106.339 111.503 105.837 111.5 105.099C111.493 103.171 109.566 92.8001 108.993 91.6096C107.996 89.5376 106.598 88.7622 98.9621 86.0435L91.3125 83.32C91.0841 83.2386 90.8969 83.2642 90.8969 83.3777L90.8969 83.3777ZM55.0322 86.0651C54.4666 87.2576 54.0039 88.2903 54.0039 88.3602C54.0039 88.4302 54.6674 88.4869 55.4781 88.4869C58.6935 88.4869 59.387 89.5272 57.9092 92.1353L57.1616 93.4554L60.4851 96.5552C62.3131 98.2593 64.3912 100.121 65.1026 100.692L66.3968 101.728L65.0199 99.2872C64.2627 97.9444 62.0353 93.9358 60.0699 90.3782C58.1046 86.8217 56.3986 83.9081 56.2787 83.9043C56.1591 83.9005 55.598 84.8736 55.0322 86.0651L55.0322 86.0651ZM83.8337 90.3782C81.8683 93.9358 79.641 97.9444 78.8837 99.2872L77.5071 101.728L78.801 100.697C79.5125 100.131 81.5905 98.2706 83.4185 96.5628L86.7423 93.4592L85.9944 92.1371C84.5173 89.5262 85.2094 88.4869 88.4258 88.4869C89.2365 88.4869 89.9 88.416 89.9 88.329C89.9 87.999 87.7543 83.8977 87.5849 83.9043C87.4871 83.9081 85.7991 86.8207 83.8337 90.3782L83.8337 90.3782ZM70.2571 90.1436L71.0009 89.1517C71.4099 88.606 71.8557 88.1597 71.9918 88.1597C72.1277 88.1597 72.5583 88.6022 72.949 89.1432L73.659 90.1266L72.9171 91.1536L72.1752 92.1815L72.9988 97.3694L73.8223 102.557L72.9701 104.044C72.5015 104.862 72.0432 105.53 71.9518 105.529C71.5958 105.527 70.2902 102.903 70.2902 102.191C70.2902 101.777 70.6164 99.359 71.0155 96.8181L71.7411 92.1995L70.9992 91.1716L70.2571 90.1436L70.2571 90.1436ZM75.6551 95.894C75.4463 94.5095 75.2811 93.1989 75.2883 92.9814C75.3024 92.5171 77.5909 95.0495 77.5955 95.5346C77.5972 95.7152 77.2469 96.4358 76.817 97.1375L76.0348 98.4113L75.6551 95.894L75.6551 95.894ZM67.3213 94.0291L66.1803 95.4522L66.9876 96.953L67.7947 98.4537L68.2183 96.1747C68.8629 92.7118 68.696 92.3136 67.3213 94.0291L67.3213 94.0291ZM31.4637 103.969C30.5569 104.7 29.9045 105.34 29.5 105.906C29.65 104.737 30.4003 104.043 31.4637 103.969L31.4637 103.969Z" id="Вектор" fill="#D7FF00" stroke="none" filter="url(#filter_1)" />
</svg>