<?xml version="1.0" encoding="utf-8"?>
<svg width="137.4829px" height="137.48299px" viewBox="0 0 137.4829 137.48299" version="1.1" xmlns:xlink="http://www.w3.org/1999/xlink" xmlns="http://www.w3.org/2000/svg">
  <path d="M0.000198364 1.0745C0.000198364 1.6677 0.481201 2.1486 1.0742 2.1486C1.6674 2.1487 2.1484 1.6677 2.1483 1.0745C2.1483 0.4813 1.6674 0.000602722 1.0742 0.00050354C0.481102 0.000297546 9.91821e-05 0.4813 0.000198364 1.0745L0.000198364 1.0745L0.000198364 1.0745ZM0.000404358 16.1117C0.00050354 16.7048 0.4814 17.1857 1.0745 17.1858C1.6677 17.1858 2.1487 16.7048 2.1486 16.1117C2.1485 15.5185 1.6676 15.0376 1.0745 15.0376C0.4813 15.0375 0.000297546 15.5185 0.000404358 16.1117L0.000404358 16.1117L0.000404358 16.1117ZM15.0379 1.0746C15.0378 1.6679 15.5186 2.1487 16.112 2.1487C16.7051 2.1487 17.1859 1.6679 17.1861 1.0746C17.1859 0.4814 16.7052 0.00050354 16.112 0.00050354C15.5186 0.00050354 15.0378 0.4814 15.0379 1.0746L15.0379 1.0746L15.0379 1.0746ZM0.000404358 31.1487C0.000404358 31.7418 0.4814 32.223 1.0744 32.223C1.6676 32.223 2.1486 31.7418 2.1485 31.1487C2.1485 30.5556 1.6677 30.0747 1.0745 30.0746C0.4814 30.0745 0.000404358 30.5556 0.000404358 31.1487L0.000404358 31.1487L0.000404358 31.1487ZM15.0373 16.1117C15.0373 16.7049 15.5182 17.1858 16.1113 17.1858C16.7045 17.1858 17.1854 16.7049 17.1853 16.1117C17.1853 15.5186 16.7045 15.0377 16.1113 15.0376C15.5182 15.0376 15.0372 15.5186 15.0373 16.1117L15.0373 16.1117L15.0373 16.1117ZM30.0746 1.0741C30.0745 1.6674 30.5554 2.1483 31.1486 2.1482C31.7418 2.1482 32.2229 1.6674 32.2229 1.0742C32.2229 0.481003 31.7419 9.91821e-05 31.1487 0C30.5554 9.91821e-05 30.0747 0.481003 30.0746 1.0741L30.0746 1.0741L30.0746 1.0741ZM9.91821e-05 46.186C9.91821e-05 46.779 0.481201 47.26 1.0742 47.26C1.6673 47.26 2.1483 46.779 2.1483 46.186C2.1483 45.593 1.6673 45.112 1.0741 45.112C0.481102 45.112 9.91821e-05 45.593 9.91821e-05 46.186L9.91821e-05 46.186L9.91821e-05 46.186ZM45.1119 1.0744C45.1119 1.6676 45.5929 2.1486 46.1859 2.1484C46.7789 2.1484 47.2599 1.6676 47.2599 1.0744C47.2599 0.4813 46.7789 0.000198364 46.1859 0.000198364C45.5929 0.000396729 45.1119 0.481201 45.1119 1.0744L45.1119 1.0744L45.1119 1.0744ZM15.0371 31.1487C15.037 31.7418 15.5181 32.223 16.1111 32.223C16.7043 32.223 17.1853 31.7418 17.1853 31.1487C17.1853 30.5555 16.7042 30.0746 16.1111 30.0746C15.5181 30.0746 15.0371 30.5556 15.0371 31.1487L15.0371 31.1487L15.0371 31.1487ZM30.0745 16.1113C30.0742 16.7045 30.5553 17.1855 31.1485 17.1854C31.7415 17.1854 32.2219 16.7045 32.2229 16.1113C32.2229 15.5182 31.7415 15.0372 31.1485 15.0372C30.5553 15.0374 30.0745 15.5182 30.0745 16.1113L30.0745 16.1113L30.0745 16.1113ZM30.0745 31.1482C30.0744 31.7413 30.5554 32.222 31.1485 32.222C31.7416 32.222 32.2229 31.7412 32.2229 31.1482C32.2229 30.5551 31.7417 30.0741 31.1485 30.0742C30.5554 30.0741 30.0744 30.5551 30.0745 31.1482L30.0745 31.1482L30.0745 31.1482ZM60.1499 1.0746C60.1489 1.6679 60.6299 2.1489 61.2239 2.1487C61.8169 2.1487 62.2979 1.6679 62.2979 1.0746C62.2979 0.481598 61.8169 0.000602722 61.2239 0.000602722C60.6309 0.000801086 60.1499 0.481499 60.1499 1.0746L60.1499 1.0746L60.1499 1.0746ZM0.000198364 61.224C0.000198364 61.817 0.481201 62.298 1.0742 62.298C1.6673 62.298 2.1483 61.817 2.1483 61.224C2.1483 60.631 1.6673 60.15 1.0742 60.15C0.481201 60.15 0.000198364 60.631 0.000198364 61.224L0.000198364 61.224L0.000198364 61.224ZM15.0377 46.186C15.0377 46.779 15.5188 47.26 16.1118 47.26C16.7049 47.26 17.1859 46.779 17.1859 46.186C17.1859 45.593 16.7049 45.112 16.1118 45.112C15.5188 45.112 15.0377 45.593 15.0377 46.186L15.0377 46.186L15.0377 46.186ZM45.1119 16.1114C45.1119 16.7047 45.5929 17.1857 46.1859 17.1855C46.7789 17.1855 47.2599 16.7047 47.2599 16.1114C47.2599 15.5184 46.7789 15.0374 46.1859 15.0374C45.5929 15.0376 45.1119 15.5184 45.1119 16.1114L45.1119 16.1114L45.1119 16.1114ZM45.1119 31.1486C45.1119 31.7418 45.5929 32.223 46.1859 32.223C46.7789 32.223 47.2599 31.7418 47.2599 31.1486C47.2599 30.5553 46.7789 30.0745 46.1859 30.0745C45.5929 30.0745 45.1119 30.5553 45.1119 31.1486L45.1119 31.1486L45.1119 31.1486ZM75.1859 1.0746C75.1859 1.6679 75.6669 2.1488 76.2599 2.1488C76.8529 2.1488 77.3339 1.6679 77.3339 1.0746C77.3339 0.4814 76.8529 0.00050354 76.2599 0.00050354C75.6669 0.000602722 75.1859 0.4814 75.1859 1.0746L75.1859 1.0746L75.1859 1.0746ZM0.000404358 76.261C0.000404358 76.854 0.481201 77.334 1.0744 77.335C1.6676 77.334 2.1485 76.854 2.1485 76.261C2.1485 75.667 1.6676 75.186 1.0744 75.186C0.481201 75.186 0.000297546 75.667 0.000404358 76.261L0.000404358 76.261L0.000404358 76.261ZM60.1489 16.1118C60.1489 16.7051 60.6289 17.1859 61.2229 17.1859C61.8159 17.1859 62.2969 16.7051 62.2969 16.1119C62.2969 15.5185 61.8159 15.0377 61.2229 15.0377C60.6289 15.0378 60.1489 15.5186 60.1489 16.1118L60.1489 16.1118L60.1489 16.1118ZM15.0379 61.224C15.0379 61.817 15.5188 62.297 16.112 62.298C16.705 62.298 17.1861 61.817 17.1861 61.223C17.1859 60.63 16.705 60.149 16.112 60.149C15.5188 60.149 15.0378 60.63 15.0379 61.224L15.0379 61.224L15.0379 61.224ZM30.0748 46.186C30.0747 46.779 30.5556 47.26 31.1488 47.26C31.7418 47.26 32.2229 46.779 32.2229 46.186C32.2229 45.592 31.7418 45.112 31.1488 45.112C30.5556 45.111 30.0745 45.592 30.0748 46.186L30.0748 46.186L30.0748 46.186ZM75.1859 16.1112C75.1859 16.7045 75.6659 17.1853 76.2599 17.1853C76.8529 17.1853 77.3339 16.7045 77.3339 16.1112C77.3339 15.518 76.8529 15.0371 76.2599 15.0371C75.6659 15.0371 75.1859 15.518 75.1859 16.1112L75.1859 16.1112L75.1859 16.1112ZM30.0747 61.223C30.0747 61.817 30.5556 62.297 31.1488 62.298C31.7418 62.298 32.2229 61.817 32.2229 61.223C32.2229 60.63 31.7418 60.149 31.1488 60.149C30.5555 60.149 30.0745 60.63 30.0747 61.223L30.0747 61.223L30.0747 61.223ZM45.1119 46.186C45.1119 46.779 45.5919 47.26 46.1859 47.26C46.7789 47.26 47.2599 46.779 47.2599 46.186C47.2589 45.593 46.7789 45.112 46.1859 45.112C45.5919 45.112 45.1109 45.593 45.1119 46.186L45.1119 46.186L45.1119 46.186ZM0.000198364 91.298C0.000198364 91.891 0.481003 92.372 1.0742 92.372C1.6674 92.372 2.1483 91.891 2.1483 91.298C2.1483 90.704 1.6674 90.223 1.0742 90.224C0.481003 90.223 0.000198364 90.704 0.000198364 91.298L0.000198364 91.298L0.000198364 91.298ZM15.0373 76.261C15.0373 76.854 15.5181 77.334 16.1113 77.335C16.7044 77.335 17.1854 76.854 17.1854 76.261C17.1851 75.667 16.7044 75.186 16.1113 75.186C15.5181 75.186 15.0371 75.667 15.0373 76.261L15.0373 76.261L15.0373 76.261ZM90.2229 1.0744C90.2229 1.6674 90.7029 2.1483 91.2969 2.1484C91.8899 2.1483 92.3709 1.6674 92.3709 1.0744C92.3709 0.480904 91.8899 9.91821e-05 91.2969 0.000198364C90.7029 9.91821e-05 90.2229 0.480904 90.2229 1.0744L90.2229 1.0744L90.2229 1.0744ZM60.1489 31.1485C60.1489 31.7417 60.6299 32.222 61.2229 32.223C61.8159 32.222 62.2969 31.7416 62.2969 31.1484C62.2969 30.5551 61.8159 30.0744 61.2229 30.0744C60.6299 30.0744 60.1489 30.5552 60.1489 31.1485L60.1489 31.1485L60.1489 31.1485ZM30.0748 76.261C30.0748 76.854 30.5556 77.335 31.1488 77.335C31.7418 77.335 32.2229 76.854 32.2229 76.261C32.2229 75.667 31.7418 75.187 31.1488 75.187C30.5556 75.186 30.0746 75.667 30.0748 76.261L30.0748 76.261L30.0748 76.261ZM45.1119 61.224C45.1119 61.817 45.5929 62.297 46.1859 62.298C46.7789 62.298 47.2599 61.817 47.2599 61.224C47.2599 60.63 46.7789 60.149 46.1859 60.149C45.5929 60.149 45.1119 60.63 45.1119 61.224L45.1119 61.224L45.1119 61.224ZM60.1489 46.185C60.1489 46.779 60.6299 47.259 61.2229 47.259C61.8159 47.259 62.2969 46.779 62.2969 46.185C62.2969 45.592 61.8159 45.111 61.2229 45.111C60.6299 45.111 60.1489 45.592 60.1489 46.185L60.1489 46.185L60.1489 46.185ZM75.1869 31.1487C75.1869 31.742 75.6669 32.223 76.2609 32.223C76.8539 32.223 77.3349 31.7419 77.3349 31.1487C77.3349 30.5554 76.8539 30.0746 76.2609 30.0746C75.6669 30.0746 75.1869 30.5554 75.1869 31.1487L75.1869 31.1487L75.1869 31.1487ZM15.0373 91.297C15.0373 91.89 15.5181 92.371 16.1114 92.371C16.7046 92.371 17.1854 91.89 17.1854 91.297C17.1854 90.703 16.7047 90.223 16.1114 90.223C15.5181 90.223 15.0373 90.703 15.0373 91.297L15.0373 91.297L15.0373 91.297ZM90.2229 16.1117C90.2229 16.7049 90.7039 17.1857 91.2969 17.1857C91.8899 17.1857 92.3709 16.7049 92.3709 16.1116C92.3709 15.5183 91.8899 15.0375 91.2969 15.0375C90.7039 15.0376 90.2229 15.5183 90.2229 16.1117L90.2229 16.1117L90.2229 16.1117ZM105.26 1.0746C105.26 1.6677 105.741 2.1484 106.334 2.1487C106.927 2.1485 107.408 1.6677 107.408 1.0746C107.408 0.481102 106.927 0.000297546 106.334 0.000602722C105.741 0.000297546 105.26 0.481102 105.26 1.0746L105.26 1.0746L105.26 1.0746ZM0.000297546 106.335C9.91821e-05 106.928 0.480904 107.409 1.0743 107.409C1.6674 107.409 2.1483 106.928 2.1484 106.335C2.1482 105.741 1.6674 105.261 1.0743 105.261C0.481003 105.261 9.91821e-05 105.741 0.000297546 106.335L0.000297546 106.335L0.000297546 106.335ZM120.298 1.0745C120.298 1.6677 120.778 2.1485 121.372 2.1486C121.965 2.1485 122.446 1.6676 122.446 1.0745C122.446 0.481201 121.965 0.000297546 121.372 0.00050354C120.778 0.000297546 120.298 0.481201 120.298 1.0745L120.298 1.0745L120.298 1.0745ZM30.0746 91.298C30.0746 91.891 30.5554 92.372 31.1486 92.372C31.7417 92.372 32.2229 91.891 32.2229 91.298C32.2229 90.704 31.7417 90.223 31.1486 90.223C30.5554 90.223 30.0744 90.704 30.0746 91.298L30.0746 91.298L30.0746 91.298ZM45.1119 76.261C45.1119 76.854 45.5929 77.334 46.1859 77.335C46.7789 77.335 47.2599 76.854 47.2599 76.261C47.2599 75.667 46.7789 75.186 46.1859 75.186C45.5929 75.186 45.1119 75.667 45.1119 76.261L45.1119 76.261L45.1119 76.261ZM75.1849 46.185C75.1849 46.778 75.6659 47.259 76.2599 47.259C76.8529 47.259 77.3329 46.779 77.3339 46.185C77.3329 45.592 76.8529 45.111 76.2599 45.111C75.6659 45.111 75.1849 45.592 75.1849 46.185L75.1849 46.185L75.1849 46.185ZM90.2229 31.1487C90.2229 31.7419 90.7039 32.223 91.2969 32.223C91.8899 32.223 92.3709 31.7419 92.3709 31.1487C92.3709 30.5555 91.8899 30.0746 91.2969 30.0746C90.7039 30.0746 90.2229 30.5554 90.2229 31.1487L90.2229 31.1487L90.2229 31.1487ZM105.26 16.1114C105.26 16.7045 105.741 17.1852 106.335 17.1854C106.928 17.1852 107.409 16.7045 107.409 16.1114C107.409 15.5179 106.928 15.0371 106.334 15.0373C105.741 15.0371 105.26 15.5179 105.26 16.1114L105.26 16.1114L105.26 16.1114ZM0.00050354 121.372C0.00050354 121.965 0.481201 122.446 1.0745 122.446C1.6677 122.446 2.1486 121.965 2.1486 121.372C2.1485 120.779 1.6677 120.298 1.0745 120.298C0.481201 120.298 0.000404358 120.779 0.00050354 121.372L0.00050354 121.372L0.00050354 121.372ZM15.0376 106.335C15.0376 106.928 15.5185 107.409 16.1117 107.409C16.7049 107.409 17.1857 106.928 17.1858 106.335C17.1857 105.741 16.7049 105.261 16.1117 105.261C15.5185 105.261 15.0376 105.741 15.0376 106.335L15.0376 106.335L15.0376 106.335ZM60.1489 61.223C60.1489 61.816 60.6299 62.297 61.2229 62.297C61.8159 62.297 62.2969 61.816 62.2969 61.223C62.2969 60.63 61.8159 60.149 61.2229 60.149C60.6299 60.149 60.1489 60.63 60.1489 61.223L60.1489 61.223L60.1489 61.223ZM75.1859 61.223C75.1859 61.816 75.6669 62.297 76.2599 62.297C76.8539 62.297 77.3339 61.816 77.3339 61.223C77.3339 60.63 76.8539 60.149 76.2599 60.149C75.6669 60.149 75.1859 60.63 75.1859 61.223L75.1859 61.223L75.1859 61.223ZM120.297 16.1114C120.297 16.7045 120.778 17.1852 121.371 17.1853C121.964 17.1853 122.445 16.7045 122.445 16.1112C122.445 15.5179 121.964 15.0372 121.371 15.0374C120.778 15.0371 120.297 15.518 120.297 16.1114L120.297 16.1114L120.297 16.1114ZM45.1119 91.297C45.1119 91.89 45.5929 92.371 46.1859 92.371C46.7789 92.371 47.2599 91.89 47.2599 91.297C47.2599 90.704 46.7789 90.223 46.1859 90.223C45.5929 90.223 45.1119 90.704 45.1119 91.297L45.1119 91.297L45.1119 91.297ZM60.1489 76.26C60.1489 76.853 60.6299 77.334 61.2229 77.334C61.8159 77.334 62.2969 76.853 62.2969 76.259C62.2969 75.666 61.8159 75.186 61.2229 75.186C60.6299 75.185 60.1489 75.666 60.1489 76.26L60.1489 76.26L60.1489 76.26ZM0 136.409C0 137.002 0.480698 137.483 1.0739 137.483C1.6671 137.483 2.1481 137.002 2.148 136.409C2.148 135.816 1.6671 135.335 1.0741 135.335C0.480698 135.335 -0.000198364 135.816 0 136.409L0 136.409L0 136.409ZM15.0376 121.371C15.0376 121.964 15.5184 122.445 16.1116 122.445C16.7048 122.445 17.1858 121.964 17.1856 121.371C17.1856 120.778 16.7048 120.297 16.1117 120.297C15.5184 120.297 15.0376 120.778 15.0376 121.371L15.0376 121.371L15.0376 121.371ZM105.26 31.1485C105.26 31.7417 105.741 32.222 106.334 32.222C106.927 32.222 107.408 31.7418 107.408 31.1482C107.408 30.5552 106.927 30.0744 106.334 30.0743C105.741 30.0744 105.26 30.5551 105.26 31.1485L105.26 31.1485L105.26 31.1485ZM30.0741 106.335C30.0742 106.928 30.555 107.409 31.148 107.409C31.7414 107.409 32.2219 106.928 32.2219 106.335C32.2219 105.741 31.7414 105.261 31.1482 105.261C30.555 105.261 30.0742 105.741 30.0741 106.335L30.0741 106.335L30.0741 106.335ZM90.2229 46.186C90.2229 46.779 90.7039 47.26 91.2969 47.26C91.8899 47.26 92.3709 46.779 92.3709 46.186C92.3709 45.593 91.8899 45.112 91.2969 45.112C90.7039 45.112 90.2229 45.593 90.2229 46.186L90.2229 46.186L90.2229 46.186ZM135.335 1.0742C135.335 1.6673 135.815 2.1481 136.409 2.1482C137.002 2.1481 137.483 1.6673 137.483 1.074C137.483 0.480698 137.002 0 136.409 9.91821e-05C135.815 0 135.335 0.480698 135.335 1.0742L135.335 1.0742L135.335 1.0742ZM15.0377 136.409C15.0377 137.002 15.5185 137.483 16.1117 137.483C16.705 137.483 17.1859 137.002 17.1858 136.409C17.1858 135.816 16.705 135.335 16.1117 135.335C15.5185 135.335 15.0377 135.816 15.0377 136.409L15.0377 136.409L15.0377 136.409ZM105.26 46.185C105.26 46.779 105.741 47.26 106.334 47.26C106.927 47.26 107.408 46.779 107.408 46.185C107.408 45.592 106.927 45.111 106.334 45.111C105.741 45.111 105.26 45.592 105.26 46.185L105.26 46.185L105.26 46.185ZM120.297 31.1489C120.297 31.7421 120.778 32.223 121.371 32.223C121.965 32.223 122.446 31.7421 122.445 31.1489C122.446 30.5556 121.965 30.0748 121.371 30.0748C120.778 30.0748 120.297 30.5556 120.297 31.1489L120.297 31.1489L120.297 31.1489ZM30.0746 121.372C30.0748 121.965 30.5556 122.446 31.1487 122.446C31.7421 122.446 32.2229 121.965 32.2229 121.372C32.2229 120.779 31.7421 120.298 31.1486 120.298C30.5556 120.298 30.0748 120.779 30.0746 121.372L30.0746 121.372L30.0746 121.372ZM45.1119 106.335C45.1119 106.928 45.5929 107.409 46.1859 107.409C46.7789 107.409 47.2599 106.928 47.2599 106.335C47.2599 105.742 46.7789 105.261 46.1859 105.261C45.5929 105.261 45.1119 105.742 45.1119 106.335L45.1119 106.335L45.1119 106.335ZM135.334 16.1113C135.335 16.7045 135.815 17.1854 136.409 17.1854C137.002 17.1853 137.483 16.7045 137.483 16.1113C137.483 15.518 137.002 15.0371 136.408 15.0372C135.815 15.0372 135.335 15.518 135.334 16.1113L135.334 16.1113L135.334 16.1113ZM60.1489 91.297C60.1489 91.89 60.6299 92.371 61.2229 92.371C61.8159 92.372 62.2969 91.891 62.2969 91.297C62.2969 90.704 61.8159 90.223 61.2229 90.223C60.6299 90.223 60.1489 90.704 60.1489 91.297L60.1489 91.297L60.1489 91.297ZM75.1859 76.26C75.1859 76.854 75.6669 77.334 76.2599 77.334C76.8539 77.335 77.3349 76.854 77.3339 76.26C77.3339 75.667 76.8539 75.186 76.2599 75.186C75.6669 75.186 75.1859 75.667 75.1859 76.26L75.1859 76.26L75.1859 76.26ZM90.2229 61.223C90.2229 61.816 90.7039 62.297 91.2969 62.297C91.8899 62.297 92.3709 61.816 92.3709 61.223C92.3709 60.63 91.8899 60.149 91.2969 60.149C90.7039 60.149 90.2229 60.63 90.2229 61.223L90.2229 61.223L90.2229 61.223ZM120.297 46.185C120.297 46.779 120.778 47.26 121.371 47.259C121.964 47.26 122.445 46.779 122.445 46.185C122.445 45.592 121.965 45.111 121.371 45.111C120.778 45.111 120.297 45.592 120.297 46.185L120.297 46.185L120.297 46.185ZM30.0745 136.409C30.0747 137.002 30.5555 137.483 31.1486 137.483C31.7419 137.483 32.2229 137.002 32.2229 136.409C32.2229 135.816 31.7419 135.335 31.1486 135.335C30.5554 135.335 30.0745 135.816 30.0745 136.409L30.0745 136.409L30.0745 136.409ZM135.334 31.1487C135.335 31.742 135.815 32.223 136.409 32.223C137.002 32.223 137.483 31.742 137.483 31.1487C137.483 30.5555 137.002 30.0747 136.409 30.0747C135.815 30.0747 135.335 30.5554 135.334 31.1487L135.334 31.1487L135.334 31.1487ZM105.26 61.223C105.26 61.816 105.741 62.297 106.334 62.297C106.927 62.297 107.408 61.816 107.408 61.223C107.408 60.63 106.927 60.149 106.334 60.149C105.741 60.149 105.26 60.63 105.26 61.223L105.26 61.223L105.26 61.223ZM45.1109 121.372C45.1119 121.965 45.5919 122.446 46.1859 122.446C46.7789 122.446 47.2599 121.965 47.2599 121.372C47.2599 120.779 46.7789 120.298 46.1859 120.298C45.5919 120.298 45.1119 120.779 45.1109 121.372L45.1109 121.372L45.1109 121.372ZM60.1479 106.335C60.1489 106.928 60.6289 107.409 61.2229 107.409C61.8159 107.409 62.2969 106.928 62.2969 106.335C62.2969 105.741 61.8159 105.261 61.2229 105.26C60.6299 105.26 60.1479 105.742 60.1479 106.335L60.1479 106.335L60.1479 106.335ZM90.2229 76.26C90.2229 76.854 90.7039 77.335 91.2969 77.334C91.8899 77.334 92.3709 76.854 92.3709 76.26C92.3709 75.667 91.8899 75.186 91.2969 75.186C90.7039 75.186 90.2229 75.667 90.2229 76.26L90.2229 76.26L90.2229 76.26ZM75.1859 91.297C75.1869 91.89 75.6669 92.371 76.2599 92.371C76.8539 92.372 77.3349 91.891 77.3349 91.297C77.3349 90.704 76.8539 90.223 76.2599 90.223C75.6669 90.223 75.1859 90.704 75.1859 91.297L75.1859 91.297L75.1859 91.297ZM60.1489 121.372C60.1489 121.965 60.6299 122.446 61.2229 122.446C61.8159 122.446 62.2969 121.965 62.2969 121.372C62.2969 120.779 61.8159 120.298 61.2229 120.298C60.6299 120.298 60.1489 120.779 60.1489 121.372L60.1489 121.372L60.1489 121.372ZM75.1859 106.335C75.1859 106.928 75.6669 107.409 76.2599 107.409C76.8529 107.409 77.3339 106.928 77.3339 106.335C77.3339 105.742 76.8529 105.261 76.2599 105.261C75.6669 105.261 75.1859 105.742 75.1859 106.335L75.1859 106.335L75.1859 106.335ZM135.334 46.186C135.334 46.779 135.815 47.26 136.408 47.26C137.002 47.26 137.482 46.779 137.482 46.186C137.482 45.593 137.002 45.112 136.408 45.112C135.815 45.112 135.334 45.593 135.334 46.186L135.334 46.186L135.334 46.186ZM105.26 76.26C105.26 76.854 105.741 77.335 106.334 77.334C106.927 77.335 107.408 76.854 107.408 76.26C107.408 75.667 106.927 75.186 106.334 75.186C105.741 75.186 105.26 75.667 105.26 76.26L105.26 76.26L105.26 76.26ZM45.1119 136.409C45.1119 137.002 45.5929 137.483 46.1859 137.483C46.7789 137.483 47.2599 137.002 47.2599 136.409C47.2599 135.816 46.7789 135.335 46.1859 135.335C45.5929 135.335 45.1119 135.816 45.1119 136.409L45.1119 136.409L45.1119 136.409ZM90.2229 91.297C90.2229 91.89 90.7039 92.371 91.2969 92.371C91.8899 92.372 92.3709 91.891 92.3709 91.297C92.3709 90.704 91.8899 90.223 91.2969 90.223C90.7039 90.223 90.2229 90.704 90.2229 91.297L90.2229 91.297L90.2229 91.297ZM120.297 61.223C120.297 61.816 120.778 62.297 121.371 62.297C121.965 62.297 122.445 61.816 122.445 61.223C122.445 60.63 121.965 60.149 121.371 60.149C120.778 60.149 120.297 60.63 120.297 61.223L120.297 61.223L120.297 61.223ZM60.1479 136.408C60.1479 137.002 60.6289 137.483 61.2219 137.482C61.8159 137.483 62.2959 137.002 62.2959 136.408C62.2959 135.815 61.8159 135.334 61.2219 135.334C60.6289 135.334 60.1479 135.815 60.1479 136.408L60.1479 136.408L60.1479 136.408ZM105.261 91.297C105.26 91.891 105.741 92.371 106.335 92.371C106.928 92.371 107.409 91.891 107.409 91.297C107.409 90.704 106.928 90.223 106.335 90.223C105.741 90.223 105.261 90.704 105.261 91.297L105.261 91.297L105.261 91.297ZM90.2229 106.334C90.2229 106.927 90.7039 107.408 91.2969 107.408C91.8899 107.408 92.3709 106.927 92.3709 106.334C92.3709 105.741 91.8899 105.26 91.2969 105.26C90.7039 105.26 90.2229 105.741 90.2229 106.334L90.2229 106.334L90.2229 106.334ZM135.334 61.222C135.334 61.816 135.815 62.297 136.408 62.297C137.002 62.297 137.482 61.816 137.482 61.222C137.482 60.629 137.002 60.148 136.408 60.148C135.815 60.148 135.334 60.629 135.334 61.222L135.334 61.222L135.334 61.222ZM75.1859 121.372C75.1859 121.965 75.6669 122.446 76.2599 122.446C76.8539 122.446 77.3349 121.965 77.3349 121.372C77.3349 120.779 76.8539 120.298 76.2599 120.298C75.6669 120.298 75.1859 120.779 75.1859 121.372L75.1859 121.372L75.1859 121.372ZM120.298 76.26C120.298 76.854 120.779 77.334 121.372 77.334C121.965 77.334 122.446 76.854 122.446 76.26C122.446 75.667 121.965 75.186 121.372 75.186C120.779 75.186 120.298 75.667 120.298 76.26L120.298 76.26L120.298 76.26ZM90.2229 121.372C90.2229 121.965 90.7039 122.446 91.2969 122.446C91.8899 122.446 92.3709 121.965 92.3709 121.372C92.3709 120.779 91.8899 120.298 91.2969 120.298C90.7039 120.298 90.2229 120.779 90.2229 121.372L90.2229 121.372L90.2229 121.372ZM105.26 106.334C105.26 106.927 105.741 107.408 106.334 107.408C106.927 107.408 107.408 106.927 107.408 106.334C107.408 105.741 106.927 105.26 106.334 105.26C105.741 105.26 105.26 105.741 105.26 106.334L105.26 106.334L105.26 106.334ZM120.298 91.297C120.298 91.89 120.779 92.371 121.372 92.371C121.965 92.371 122.446 91.89 122.446 91.297C122.446 90.704 121.965 90.223 121.372 90.223C120.779 90.223 120.298 90.704 120.298 91.297L120.298 91.297L120.298 91.297ZM75.1859 136.409C75.1859 137.002 75.6669 137.483 76.2599 137.483C76.8539 137.483 77.3349 137.002 77.3349 136.409C77.3349 135.816 76.8539 135.335 76.2599 135.335C75.6669 135.335 75.1859 135.816 75.1859 136.409L75.1859 136.409L75.1859 136.409ZM135.335 76.26C135.334 76.853 135.815 77.334 136.409 77.334C137.002 77.334 137.482 76.853 137.483 76.26C137.483 75.667 137.002 75.186 136.409 75.186C135.815 75.186 135.335 75.667 135.335 76.26L135.335 76.26L135.335 76.26ZM105.26 121.371C105.26 121.964 105.741 122.445 106.334 122.445C106.927 122.445 107.408 121.964 107.408 121.371C107.408 120.778 106.927 120.297 106.334 120.297C105.741 120.297 105.26 120.778 105.26 121.371L105.26 121.371L105.26 121.371ZM90.2229 136.408C90.2229 137.001 90.7039 137.482 91.2969 137.482C91.8899 137.482 92.3709 137.001 92.3709 136.408C92.3709 135.815 91.8899 135.334 91.2969 135.334C90.7039 135.334 90.2229 135.815 90.2229 136.408L90.2229 136.408L90.2229 136.408ZM120.297 106.335C120.297 106.928 120.778 107.409 121.371 107.409C121.964 107.409 122.445 106.928 122.445 106.335C122.445 105.741 121.964 105.26 121.371 105.26C120.778 105.261 120.297 105.741 120.297 106.335L120.297 106.335L120.297 106.335ZM135.335 91.297C135.334 91.89 135.815 92.371 136.409 92.371C137.002 92.371 137.482 91.89 137.483 91.297C137.483 90.704 137.002 90.223 136.409 90.223C135.815 90.223 135.335 90.704 135.335 91.297L135.335 91.297L135.335 91.297ZM105.26 136.409C105.26 137.002 105.741 137.483 106.334 137.483C106.927 137.483 107.408 137.002 107.408 136.409C107.408 135.816 106.927 135.335 106.334 135.335C105.741 135.335 105.26 135.816 105.26 136.409L105.26 136.409L105.26 136.409ZM135.334 106.333C135.334 106.927 135.815 107.408 136.408 107.408C137.001 107.408 137.482 106.927 137.482 106.333C137.482 105.74 137.001 105.259 136.408 105.259C135.815 105.26 135.334 105.74 135.334 106.333L135.334 106.333L135.334 106.333ZM120.298 121.372C120.298 121.965 120.779 122.446 121.372 122.446C121.965 122.446 122.446 121.965 122.446 121.372C122.446 120.779 121.965 120.298 121.372 120.298C120.779 120.298 120.298 120.779 120.298 121.372L120.298 121.372L120.298 121.372ZM120.298 136.409C120.298 137.002 120.779 137.483 121.372 137.483C121.965 137.483 122.446 137.002 122.446 136.409C122.446 135.816 121.965 135.335 121.372 135.335C120.779 135.335 120.298 135.816 120.298 136.409L120.298 136.409L120.298 136.409ZM135.334 121.372C135.334 121.965 135.815 122.446 136.408 122.446C137.001 122.446 137.482 121.965 137.482 121.372C137.482 120.779 137.001 120.298 136.408 120.298C135.815 120.298 135.334 120.779 135.334 121.372L135.334 121.372L135.334 121.372ZM135.335 136.409C135.335 137.002 135.815 137.483 136.409 137.483C137.002 137.483 137.483 137.002 137.483 136.409C137.483 135.816 137.002 135.335 136.409 135.335C135.815 135.335 135.335 135.816 135.335 136.409L135.335 136.409L135.335 136.409Z" id="Вектор" fill="#FFFFFF" fill-rule="evenodd" stroke="none" />
</svg>