<?xml version="1.0" encoding="utf-8"?>
<svg width="20.000244px" height="16.105713px" viewBox="0 0 20.000244 16.105713" version="1.1" xmlns:xlink="http://www.w3.org/1999/xlink" xmlns="http://www.w3.org/2000/svg">
  <path d="M10.0027 16.1057L9.99677 16.1057C5.86072 16.1027 2.14673 13.2037 0.06073 8.34872C-0.0202637 8.15973 -0.0202637 7.94571 0.06073 7.75671C2.14673 2.90271 5.86176 0.00372314 9.99677 0.000732422L9.99878 0L9.99976 0.000732422L10.0018 0L10.0027 0.000732422C14.1387 0.00372314 17.8528 2.90271 19.9388 7.75671C20.0208 7.94571 20.0208 8.15973 19.9388 8.34872C17.8538 13.2037 14.1387 16.1027 10.0027 16.1057L10.0027 16.1057ZM1.56976 8.0527C3.42975 12.1617 6.56274 14.6047 9.99976 14.6057C13.4368 14.6047 16.5698 12.1617 18.4297 8.0527C16.5698 3.9447 13.4368 1.50171 9.99976 1.5007C6.56378 1.50171 3.42975 3.9447 1.56976 8.0527L1.56976 8.0527ZM9.99939 11.9636C7.84241 11.9636 6.08838 10.2096 6.08838 8.05356C6.08838 5.89658 7.84241 4.14157 9.99939 4.14157C12.1564 4.14157 13.9114 5.89658 13.9114 8.05356C13.9114 10.2096 12.1564 11.9636 9.99939 11.9636L9.99939 11.9636ZM9.99939 5.64157C8.66937 5.64157 7.58838 6.72357 7.58838 8.05356C7.58838 9.38257 8.66937 10.4636 9.99939 10.4636C11.3293 10.4636 12.4114 9.38257 12.4114 8.05356C12.4114 6.72357 11.3293 5.64157 9.99939 5.64157L9.99939 5.64157Z" id="Вектор" fill="#000000" fill-rule="evenodd" stroke="none" />
</svg>