<?xml version="1.0" encoding="utf-8"?>
<svg width="21.5px" height="19.5px" viewBox="0 0 21.5 19.5" version="1.1" xmlns:xlink="http://www.w3.org/1999/xlink" xmlns="http://www.w3.org/2000/svg">
  <path d="M5.82202 19.5C4.27899 19.5 2.901 18.9399 1.83698 17.8799C0.651978 16.6982 0 15.0322 0 13.188L0 6.31982C0 2.7168 2.51099 0 5.841 0L15.659 0C18.989 0 21.5 2.7168 21.5 6.31982L21.5 13.188C21.5 15.0322 20.848 16.6982 19.663 17.8799C18.6 18.939 17.221 19.5 15.675 19.5L5.82202 19.5L5.82202 19.5ZM5.82501 18L15.659 18C15.6602 17.9985 15.6636 17.999 15.675 18C16.816 18 17.828 17.5918 18.604 16.8169C19.505 15.9199 20 14.6309 20 13.188L20 6.31982C20 3.52686 18.174 1.5 15.659 1.5L5.841 1.5C3.32599 1.5 1.5 3.52686 1.5 6.31982L1.5 13.188C1.5 14.6309 1.99597 15.9199 2.896 16.8169C3.672 17.5918 4.685 18 5.82501 18L5.82501 18ZM10.777 11.4644C10.108 11.4644 9.44098 11.2437 8.883 10.8013L4.39795 7.18555C4.07495 6.92529 4.02496 6.45264 4.284 6.13037C4.54498 5.80957 5.01697 5.7583 5.33899 6.01758L9.82001 9.62939C10.383 10.0757 11.176 10.0757 11.743 9.62549L16.179 6.01953C16.501 5.75635 16.973 5.80664 17.235 6.12842C17.496 6.44971 17.447 6.92139 17.126 7.18359L12.682 10.7954C12.12 11.2417 11.448 11.4644 10.777 11.4644L10.777 11.4644Z" id="Вектор" fill="#000000" fill-rule="evenodd" stroke="none" />
</svg>