<?xml version="1.0" encoding="utf-8"?>
<svg width="46.501205px" height="52.919712px" viewBox="0 0 46.501205 52.919712" version="1.1" xmlns:xlink="http://www.w3.org/1999/xlink" xmlns="http://www.w3.org/2000/svg">
  <path d="M39.6904 6.80981C43.9589 11.0778 46.4002 16.8386 46.4981 22.8741C46.596 28.9095 44.3427 34.7464 40.2148 39.1506L39.6904 39.6931L28.7294 50.6516C27.3386 52.0415 25.4714 52.8508 23.5062 52.9155C21.5411 52.9803 19.6247 52.2957 18.1454 51.0003L17.7734 50.6516L6.80981 39.6905C2.44956 35.3302 0 29.4165 0 23.2501C0 17.0838 2.44956 11.1701 6.80981 6.80981C11.17 2.44957 17.0838 0 23.2501 0C29.4164 0 35.3302 2.44957 39.6904 6.80981L39.6904 6.80981ZM23.2501 15.5001C22.2324 15.5001 21.2246 15.7006 20.2843 16.0901C19.344 16.4796 18.4897 17.0504 17.77 17.7701C17.0504 18.4897 16.4795 19.3441 16.09 20.2843C15.7006 21.2246 15.5001 22.2324 15.5001 23.2501C15.5001 24.2679 15.7006 25.2757 16.09 26.2159C16.4795 27.1562 17.0504 28.0106 17.77 28.7302C18.4897 29.4499 19.344 30.0207 20.2843 30.4102C21.2246 30.7997 22.2324 31.0001 23.2501 31.0001C25.3055 31.0001 27.2768 30.1836 28.7302 28.7302C30.1836 27.2768 31.0001 25.3056 31.0001 23.2501C31.0001 21.1947 30.1836 19.2235 28.7302 17.7701C27.2768 16.3167 25.3055 15.5001 23.2501 15.5001L23.2501 15.5001Z" id="Фигура" fill="#D7FF00" fill-rule="evenodd" stroke="none" />
</svg>