<?xml version="1.0" encoding="utf-8"?>
<svg width="125px" height="141px" viewBox="0 0 125 141" version="1.1" xmlns:xlink="http://www.w3.org/1999/xlink" xmlns="http://www.w3.org/2000/svg">
  <defs>
    <filter filterUnits="userSpaceOnUse" color-interpolation-filters="sRGB" id="filter_1">
      <feFlood flood-opacity="0" result="BackgroundImageFix" />
      <feColorMatrix in="SourceAlpha" type="matrix" values="0 0 0 0 0 0 0 0 0 0 0 0 0 0 0 0 0 0 128 0" />
      <feOffset dx="0" dy="0" />
      <feGaussianBlur stdDeviation="9.5" />
      <feColorMatrix type="matrix" values="0 0 0 0 0.84313726 0 0 0 0 1 0 0 0 0 0 0 0 0 0.16078432 0" />
      <feBlend mode="normal" in2="BackgroundImageFix" result="effect0_dropShadow" />
      <feBlend mode="normal" in="SourceGraphic" in2="effect0_dropShadow" result="shape" />
    </filter>
  </defs>
  <path d="M51.8463 32.469C53.0651 31.1747 54.3011 30.4673 56.4388 29.8424C57.3937 29.5629 59.1369 29.4452 61.1537 29.524C66.8607 29.7462 72.4437 32.2574 76.3654 36.3661C80.4468 40.643 81.6042 45.6474 79.7976 51.2085L79.2131 53.0086L78.1804 50.8759C75.0191 44.3458 67.2064 40.3113 59.9158 41.4443C54.3871 42.3033 49.0942 46.1133 46.8462 50.8525C45.9407 52.7612 45.7986 52.9096 45.4006 52.3672C45.1578 52.0355 44.6432 50.7265 44.2574 49.4579C42.7939 44.6463 44.0947 41.3183 48.9777 37.3809C49.3771 37.0588 49.704 36.559 49.704 36.2703C49.704 35.447 50.69 33.6973 51.8463 32.469L51.8463 32.469ZM48.4592 52.1683C50.5832 47.8731 54.0934 44.9336 58.4591 43.7928C65.8188 41.8708 73.1273 45.2662 76.558 52.2031L77.8213 54.7569L77.9082 61.506C77.9821 67.2348 77.9056 68.5084 77.4031 69.937L76.8112 71.6198L74.0092 71.7183C71.3052 71.8127 71.1669 71.7801 70.041 70.7928L68.8744 69.7688L64.6509 69.7688C60.4321 69.7688 60.4267 69.7697 59.4435 70.7525C58.85 71.3458 58.4591 72.0912 58.4591 72.6295C58.4591 73.1679 58.85 73.9133 59.4435 74.5062C60.4267 75.4889 60.4321 75.4903 64.6509 75.4903C68.8635 75.4903 68.8774 75.4875 70.0249 74.4805C71.0552 73.5761 71.4082 73.4707 73.4041 73.4707C74.6298 73.4707 75.6326 73.6059 75.6326 73.7708C75.6326 74.5089 72.3447 77.6189 70.4644 78.6602C64.8992 81.7414 59.0649 81.5956 53.8891 78.247C50.6385 76.1441 48.5733 73.3608 47.5069 69.6465C47.0412 68.0255 46.9614 66.5205 47.0593 61.2155L47.1785 54.7578L48.4592 52.1683L48.4592 52.1683ZM39.6532 62.5451C39.5245 58.9939 39.8768 57.6144 41.057 57.0445C41.4608 56.8493 42.4727 56.6798 43.3061 56.667L44.8214 56.644L44.8214 67.0767L43.0909 67.0767C40.2485 67.0767 39.7953 66.4797 39.6532 62.5451L39.6532 62.5451ZM80.1785 56.644L80.1785 67.0767L81.9091 67.0767C84.7515 67.0767 85.2047 66.4797 85.3467 62.5451C85.5198 57.7583 84.8117 56.644 81.5938 56.644L80.1785 56.644L80.1785 56.644ZM60.6075 72.2778C60.2213 73.283 60.8644 73.4717 64.6807 73.4717C68.5241 73.4717 69.0471 73.305 68.644 72.2095C68.403 71.5553 60.8605 71.619 60.6075 72.2778L60.6075 72.2778ZM53.7449 86.0906L53.7449 83.4466C53.7449 81.0536 53.8008 80.8269 54.3342 81.0619C54.6584 81.2044 55.9639 81.685 57.2358 82.1289C61.0023 83.4438 66.2802 83.1758 69.6422 81.498C70.3293 81.1554 70.9731 80.8745 71.0732 80.8745C71.1733 80.8745 71.2551 82.0483 71.2551 83.4828L71.2551 86.0906L53.7449 86.0906L53.7449 86.0906ZM51.556 88.6447C49.0148 88.9865 44.9746 90.0132 43.1135 90.7907L41.9591 91.2727L41.9591 111.499L83.0504 111.499L82.9617 101.321L82.8723 91.1439L80.7937 90.4031C76.1845 88.762 74.3361 88.5471 63.8467 88.4344C58.3833 88.3758 52.8525 88.4701 51.556 88.6447L51.556 88.6447ZM85.0612 111.5L85.0612 101.908C85.0612 96.6332 85.1492 92.3174 85.2568 92.3174C85.3642 92.3174 86.3104 92.8855 87.3595 93.5792C90.162 95.4342 92.8633 98.338 94.2651 101.004C95.4894 103.333 95.5 103.387 95.5 107.426L95.5 111.5L85.0612 111.5L85.0612 111.5ZM37.5816 93.5614C34.9248 95.2987 32.1434 98.3253 30.726 101.021C29.5118 103.329 29.5 103.392 29.5 107.426L29.5 111.499L39.9388 111.499L39.9388 101.908C39.9388 96.6324 39.8253 92.3243 39.6862 92.3335C39.5471 92.3427 38.6002 92.8957 37.5816 93.5614L37.5816 93.5614Z" id="Вектор" fill="#D7FF00" stroke="none" filter="url(#filter_1)" />
</svg>