<?xml version="1.0" encoding="utf-8"?>
<svg width="20.500305px" height="20.500153px" viewBox="0 0 20.500305 20.500153" version="1.1" xmlns:xlink="http://www.w3.org/1999/xlink" xmlns="http://www.w3.org/2000/svg">
  <path d="M2.35907 3.061C2.36102 3.061 2.31104 3.11301 2.24805 3.17499C2.00604 3.41 1.50507 3.89899 1.50006 4.922C1.49207 6.353 2.43304 9.01001 6.96405 13.54C11.4741 18.048 14.127 19 15.5611 19L15.582 19C16.605 18.995 17.0931 18.493 17.3291 18.252C17.401 18.178 17.459 18.124 17.5001 18.09C18.4961 17.088 19.0061 16.342 19.0011 15.864C18.9941 15.376 18.387 14.799 17.5481 14.001C17.2811 13.747 16.991 13.471 16.685 13.165C15.8921 12.374 15.4991 12.509 14.6351 12.813C13.4401 13.232 11.8001 13.802 9.25208 11.253C6.70007 8.703 7.27106 7.065 7.68903 5.87C7.99103 5.00601 8.12903 4.612 7.33502 3.81799C7.02405 3.508 6.74506 3.21399 6.48804 2.944C5.69507 2.10999 5.12305 1.50699 4.63806 1.5L4.63007 1.5C4.15106 1.5 3.40704 2.01199 2.35406 3.065C2.35706 3.06201 2.35803 3.061 2.35907 3.061L2.35907 3.061ZM15.5621 20.5002C13.07 20.5002 9.82111 18.5162 5.90411 14.6012C1.97211 10.6702 -0.0148926 7.41116 6.10352e-05 4.91415C0.00909424 3.26416 0.874084 2.41916 1.1991 2.10214C1.21606 2.08115 1.27411 2.02417 1.29407 2.00415C2.72809 0.569153 3.69507 -0.0108337 4.6571 0.000152588C5.77411 0.0151672 6.56909 0.851166 7.57507 1.91016C7.8241 2.17215 8.09406 2.45715 8.39508 2.75714C9.8551 4.21716 9.43909 5.40814 9.1051 6.36417C8.74109 7.40717 8.42609 8.30716 10.3121 10.1932C12.2 12.0792 13.1 11.7642 14.1392 11.3972C15.096 11.0632 16.2841 10.6452 17.7462 12.1052C18.0421 12.4012 18.3231 12.6682 18.5822 12.9152C19.6461 13.9262 20.4861 14.7252 20.5001 15.8452C20.512 16.8002 19.932 17.7732 18.5001 19.2062L17.8661 18.7762L18.4022 19.3002C18.0851 19.6252 17.241 20.4912 15.5901 20.5002L15.5621 20.5002L15.5621 20.5002Z" id="Group" fill="#D7FF00" fill-rule="evenodd" stroke="none" />
</svg>