<?xml version="1.0" encoding="utf-8"?>
<svg width="19.499153px" height="19.499556px" viewBox="0 0 19.499153 19.499556" version="1.1" xmlns:xlink="http://www.w3.org/1999/xlink" xmlns="http://www.w3.org/2000/svg">
  <path d="M8.80494 11.8176L12.4619 17.7506C12.6219 18.0106 12.8719 18.0076 12.9729 17.9936C13.0739 17.9796 13.3169 17.9176 13.4049 17.6226L17.9779 2.17753C18.0579 1.90453 17.9109 1.71853 17.8449 1.65253C17.7809 1.58653 17.5979 1.44553 17.3329 1.52053L1.87695 6.04653C1.58394 6.13253 1.51994 6.37852 1.50594 6.47953C1.49194 6.58253 1.48794 6.83753 1.74695 7.00053L7.74794 10.7536L13.0499 5.39553C13.3409 5.10153 13.8159 5.09853 14.1109 5.38953C14.4059 5.68053 14.4079 6.15653 14.1169 6.45053L8.80494 11.8176L8.80494 11.8176ZM12.8949 19.4996C12.1989 19.4996 11.5609 19.1456 11.1849 18.5376L7.30794 12.2466L0.951945 8.27153C0.266945 7.84253 -0.0910549 7.07853 0.0199451 6.27553C0.129945 5.47253 0.680944 4.83453 1.45494 4.60753L16.9109 0.0815277C17.6219 -0.126472 18.3839 0.0705271 18.9079 0.592527C19.4319 1.11953 19.6269 1.88953 19.4149 2.60353L14.8419 18.0476C14.6129 18.8246 13.9729 19.3736 13.1719 19.4806C13.0779 19.4926 12.9869 19.4996 12.8949 19.4996L12.8949 19.4996Z" id="Group" fill="#000000" fill-rule="evenodd" stroke="none" />
</svg>