<?xml version="1.0" encoding="utf-8"?>
<svg width="17.549805px" height="17.55017px" viewBox="0 0 17.549805 17.55017" version="1.1" xmlns:xlink="http://www.w3.org/1999/xlink" xmlns="http://www.w3.org/2000/svg">
  <path d="M7.92468 10.6362L11.2161 15.976C11.36 16.21 11.5851 16.2073 11.676 16.1948C11.7669 16.1821 11.9856 16.1263 12.0648 15.8608L16.1806 1.95984C16.2526 1.71414 16.1203 1.54672 16.0609 1.48734C16.0033 1.42792 15.8386 1.30103 15.6001 1.36853L1.68927 5.44205C1.4256 5.51947 1.36798 5.74088 1.35535 5.83176C1.34277 5.92447 1.33917 6.15399 1.57227 6.30069L6.97333 9.67853L11.7453 4.85614C12.0072 4.59152 12.4347 4.58884 12.7002 4.85074C12.9657 5.11264 12.9675 5.54105 12.7056 5.80566L7.92468 10.6362L7.92468 10.6362ZM11.6058 17.5502C10.9794 17.5502 10.4052 17.2316 10.0668 16.6843L6.57739 11.0223L0.85675 7.44461C0.240234 7.0585 -0.0819702 6.37088 0.0179443 5.64816C0.116943 4.92545 0.612854 4.35123 1.30951 4.14691L15.2203 0.0733643C15.8602 -0.113831 16.5461 0.0634766 17.0177 0.533295C17.4893 1.0076 17.6648 1.70062 17.474 2.34326L13.3582 16.2433C13.152 16.9427 12.576 17.4368 11.8551 17.5331C11.7705 17.5439 11.6886 17.5502 11.6058 17.5502L11.6058 17.5502Z" id="Group" fill="#000000" fill-rule="evenodd" stroke="none" />
</svg>