<?xml version="1.0" encoding="utf-8"?>
<svg width="120px" height="142px" viewBox="0 0 120 142" version="1.1" xmlns:xlink="http://www.w3.org/1999/xlink" xmlns="http://www.w3.org/2000/svg">
  <defs>
    <filter filterUnits="userSpaceOnUse" color-interpolation-filters="sRGB" id="filter_1">
      <feFlood flood-opacity="0" result="BackgroundImageFix" />
      <feColorMatrix in="SourceAlpha" type="matrix" values="0 0 0 0 0 0 0 0 0 0 0 0 0 0 0 0 0 0 128 0" />
      <feOffset dx="0" dy="0" />
      <feGaussianBlur stdDeviation="9.5" />
      <feColorMatrix type="matrix" values="0 0 0 0 0.84313726 0 0 0 0 1 0 0 0 0 0 0 0 0 0.16078432 0" />
      <feBlend mode="normal" in2="BackgroundImageFix" result="effect0_dropShadow" />
      <feBlend mode="normal" in="SourceGraphic" in2="effect0_dropShadow" result="shape" />
    </filter>
  </defs>
  <path d="M56.1875 29.7C49.1042 30.885 44.1697 35.6511 43.4412 42.011C43.1929 44.1775 43.9066 49.2459 44.7553 51.3453L45.2173 52.4885L45.8815 50.5836C46.9857 47.4168 48.4402 44.8645 49.8397 43.6356C51.9884 41.7505 53.3267 41.4966 59.5863 41.7868C65.6509 42.0692 67.604 41.7483 69.9349 40.0896C71.3152 39.1069 72.3011 39.3883 72.5144 40.8272C72.5827 41.2855 73.1402 42.6144 73.7535 43.7796C74.5847 45.358 74.8759 46.4462 74.8969 48.05C74.9126 49.2338 75.041 50.9562 75.1829 51.8784L75.4407 53.5536L76.1545 52.0686C78.4556 47.2816 79.191 42.4331 78.1555 38.8739C77.4124 36.3194 76.1563 35.152 74.1501 35.1509C73.0377 35.1509 72.4974 34.8586 71.3476 33.6374C69.611 31.7929 67.6502 30.7564 64.4916 30.0122C62.2483 29.4835 58.3553 29.3373 56.1875 29.7L56.1875 29.7ZM68.3874 43.4707C67.2711 44.0016 65.969 44.0895 60.4207 44.0071C53.9361 43.9104 53.7518 43.9301 52.1508 44.8678C50.8843 45.6086 50.2513 46.3649 49.3558 48.2049C48.0317 50.9243 47.0375 54.4868 47.0375 56.5093C47.0375 61.1952 51.89 68.9807 56.0709 71.0043C58.4434 72.1519 61.5552 72.153 63.9246 71.0066C67.5515 69.2511 71.3505 63.8761 72.7334 58.5439C73.5574 55.3661 72.7465 46.222 71.4553 44.1346C70.5149 42.6144 70.2881 42.5649 68.3874 43.4707L68.3874 43.4707ZM51.0112 77.2557C51.1207 76.6269 51.3246 74.9507 51.4649 73.5294C51.7165 70.9837 51.7314 70.9551 52.524 71.5421C57.0986 74.9287 62.9012 74.9287 67.4746 71.5421C68.2712 70.9529 68.2811 70.9782 68.6973 74.6407C68.9283 76.672 69.0037 78.5197 68.8647 78.7473C67.8395 80.4247 60.2493 90.4009 59.9974 90.4009C59.8228 90.4009 57.6846 87.7002 55.2462 84.3993C51.3818 79.1694 50.8377 78.2515 51.0112 77.2557L51.0112 77.2557ZM45.3793 82.8073C44.7823 84.4968 44.3534 85.9335 44.4263 85.9983C44.4995 86.0632 45.5608 86.6754 46.7846 87.3602C48.0085 88.045 49.0931 88.8221 49.1949 89.087C49.2967 89.3519 48.7671 90.8952 48.0179 92.5154C47.2688 94.1356 46.6562 95.68 46.6562 95.9471C46.6562 96.5022 59.5256 111.548 59.9999 111.548C60.4741 111.548 73.3437 96.5022 73.3437 95.9471C73.3437 95.68 72.7311 94.1356 71.9818 92.5154C71.2327 90.8952 70.7031 89.3519 70.8049 89.087C70.9067 88.8221 71.9913 88.045 73.2151 87.3602C74.4391 86.6754 75.5005 86.0632 75.5736 85.9983C75.6465 85.9335 75.2175 84.4968 74.6205 82.8073C73.5617 79.811 73.5027 79.734 72.2873 79.7329C71.111 79.7318 70.7428 80.133 65.8224 86.7809C62.8655 90.7765 60.3431 93.83 59.9999 93.83C59.6567 93.83 57.1345 90.7765 54.1775 86.7809C49.2571 80.133 48.8888 79.7318 47.7126 79.7329C46.4971 79.734 46.438 79.811 45.3793 82.8073L45.3793 82.8073ZM41.6588 80.2842C35.7056 81.9253 31.0563 87.0519 29.9167 93.2327C29.6875 94.4769 29.5 99.32 29.5 103.997L29.5 112.5L43.4748 112.5C56.7458 112.5 57.4208 112.466 56.8828 111.833C56.5714 111.466 53.5425 107.945 50.1519 104.008C46.7615 100.071 43.9875 96.6226 43.9875 96.3456C43.9875 96.0686 44.6006 94.5165 45.3497 92.8952C46.0992 91.275 46.6566 89.9065 46.5889 89.856C46.5214 89.8043 45.466 89.2008 44.2445 88.5127C43.0226 87.8257 41.9475 87.0673 41.8551 86.8266C41.7629 86.5858 42.2051 84.9722 42.8377 83.2399C43.4701 81.5087 43.9875 80.0105 43.9875 79.9116C43.9875 79.673 43.7264 79.7148 41.6588 80.2842L41.6588 80.2842ZM77.1625 83.2396C76.5299 81.5084 76.0126 79.9992 76.0126 79.886C76.0126 79.7728 76.3126 79.7695 76.6797 79.8783C77.0468 79.9882 77.8617 80.1927 78.4908 80.3345C82.2643 81.183 86.8834 85.083 88.7216 88.973C90.1768 92.0518 90.5 94.7844 90.5 103.997L90.5 112.5L76.5253 112.5C63.2542 112.5 62.5792 112.466 63.117 111.833C63.4286 111.467 66.4575 107.945 69.8482 104.008C73.2386 100.07 76.0126 96.6223 76.0126 96.3464C76.0126 96.0683 75.3994 94.5162 74.6503 92.896C73.9009 91.2747 73.3434 89.9073 73.4111 89.8557C73.4788 89.8051 74.534 89.2005 75.7555 88.5135C76.9775 87.8254 78.0527 87.067 78.1448 86.8263C78.2371 86.5856 77.795 84.972 77.1625 83.2396L77.1625 83.2396Z" id="Вектор" fill="#D7FF00" stroke="none" filter="url(#filter_1)" />
</svg>