<?xml version="1.0" encoding="utf-8"?>
<svg width="23.300049px" height="19.299988px" viewBox="0 0 23.300049 19.299988" version="1.1" xmlns:xlink="http://www.w3.org/1999/xlink" xmlns="http://www.w3.org/2000/svg">
  <path d="M1.99854 8.48911C1.99854 8.48911 11.7288 4.53766 15.1034 3.14636C16.397 2.58981 20.784 0.808868 20.784 0.808868C20.784 0.808868 22.8088 0.0298462 22.64 1.92191C22.5837 2.70108 22.1337 5.42807 21.6838 8.37772C21.0089 12.5518 20.2777 17.1152 20.2777 17.1152C20.2777 17.1152 20.1653 18.3953 19.2092 18.6179C18.253 18.8406 16.6782 17.8388 16.397 17.6161C16.1721 17.4491 12.1788 14.9448 10.7165 13.7205C10.3227 13.3866 9.87274 12.7187 10.7727 11.9395C12.7974 10.1031 15.2159 7.8212 16.6782 6.37424C17.353 5.70633 18.0281 4.14801 15.2159 6.04022C11.2227 8.76721 7.28552 11.3273 7.28552 11.3273C7.28552 11.3273 6.38574 11.8839 4.69843 11.383C3.01117 10.8821 1.0426 10.2143 1.0426 10.2143C1.0426 10.2143 -0.307129 9.37936 1.99884 8.48911L1.99854 8.48911Z" id="Фигура" fill="none" stroke="#D7FF00" stroke-width="1.3" />
</svg>