<?xml version="1.0" encoding="utf-8"?>
<svg width="140px" height="140px" viewBox="0 0 140 140" version="1.1" xmlns:xlink="http://www.w3.org/1999/xlink" xmlns="http://www.w3.org/2000/svg">
  <defs>
    <filter filterUnits="userSpaceOnUse" color-interpolation-filters="sRGB" id="filter_1">
      <feFlood flood-opacity="0" result="BackgroundImageFix" />
      <feColorMatrix in="SourceAlpha" type="matrix" values="0 0 0 0 0 0 0 0 0 0 0 0 0 0 0 0 0 0 128 0" />
      <feOffset dx="0" dy="0" />
      <feGaussianBlur stdDeviation="9.5" />
      <feColorMatrix type="matrix" values="0 0 0 0 0.84313726 0 0 0 0 1 0 0 0 0 0 0 0 0 0.16078432 0" />
      <feBlend mode="normal" in2="BackgroundImageFix" result="effect0_dropShadow" />
      <feBlend mode="normal" in="SourceGraphic" in2="effect0_dropShadow" result="shape" />
    </filter>
  </defs>
  <path d="M63.3506 36.2719C63.3298 33.5517 65.4329 30.4411 67.7772 29.725C68.3843 29.5395 69.7034 29.4506 70.7086 29.5279C76.0486 29.9347 78.5801 36.2352 75.0263 40.2744C73.2213 42.3269 70.8684 43.0999 68.4267 42.4438C65.8262 41.7442 63.3693 38.7582 63.3506 36.2719L63.3506 36.2719ZM84.8011 63.5989C84.4782 65.5798 84.0391 65.8775 81.4338 65.8775L79.1324 65.8775L79.0414 59.5974L78.9502 53.3162L77.272 53.3162L77.1805 59.5974L77.0892 65.8775L63.0222 65.8775L62.9307 59.5974L62.8396 53.3162L61.1614 53.3162L61.0701 59.5974L60.9786 65.8775L58.6558 65.8775C55.4155 65.8775 55.2877 65.6542 55.2877 60.0119C55.2877 54.9706 55.8043 52.4736 57.2942 50.3129C59.931 46.4882 63.8783 44.7749 70.0555 44.7749C73.8209 44.7749 76.0807 45.2445 78.5365 46.5365C82.029 48.3735 84.2814 51.7469 84.7028 55.7726C84.8295 56.2461 84.9725 56.91 85.087 57.6734C85.3129 59.176 85.4283 61.0613 85.0911 62.6268C85.0173 62.9688 84.9219 63.2955 84.8011 63.5989L84.8011 63.5989ZM69.4683 70.7887C69.1796 70.9056 69.0491 71.8352 69.0491 73.7775L69.0491 76.5963L53.5088 76.5963C41.8696 76.5963 37.8679 76.6978 37.5662 76.9983C37.301 77.2631 37.1635 78.6787 37.1635 81.1448C37.1635 84.152 37.2682 84.9753 37.695 85.329C38.0801 85.6479 38.3808 85.672 38.786 85.4179C39.2283 85.1405 39.3652 84.4274 39.4418 82.0038L39.5381 78.9416L69.0248 78.9416L69.1207 82.2068C69.2156 85.442 69.2248 85.473 70.0558 85.473C70.8868 85.473 70.896 85.442 70.9909 82.2068L71.0868 78.9416L100.574 78.9416L100.67 82.0038C100.746 84.4274 100.883 85.1405 101.326 85.4179C101.731 85.672 102.031 85.6479 102.416 85.329C102.843 84.9753 102.948 84.152 102.948 81.1448C102.948 78.6787 102.81 77.2631 102.545 76.9983C102.244 76.6978 98.2419 76.5963 86.6026 76.5963L71.0626 76.5963L71.0626 73.7853C71.0626 71.5309 70.9575 70.9337 70.5317 70.7704C70.2398 70.6583 69.9757 70.579 69.9442 70.5935C69.9135 70.608 69.6993 70.6959 69.4683 70.7887L69.4683 70.7887ZM36.2973 91.2964C33.4802 93.0107 34.3061 97.5137 37.557 98.1631C39.038 98.4588 40.8658 97.4905 41.6757 95.9802C42.2533 94.9037 42.2802 94.6041 41.9094 93.3682C41.1817 90.9456 38.5009 89.9551 36.2973 91.2964L36.2973 91.2964ZM98.2023 93.3681C98.4902 92.4105 98.9578 91.7679 99.694 91.3204C103.562 88.9665 107.634 93.9363 104.446 97.1184C102.648 98.9128 99.7106 98.3572 98.4359 95.98C97.8582 94.9036 97.8315 94.604 98.2023 93.3681L98.2023 93.3681ZM68.5081 90.9763C66.4617 91.8508 65.6629 95.0445 67.0504 96.8052C67.9279 97.9184 69.6794 98.4189 71.2156 97.9957C74.9739 96.9598 74.4503 91.2295 70.5594 90.8159C69.8211 90.7376 68.8981 90.8091 68.5081 90.9763L68.5081 90.9763ZM29.511 108.139C29.3442 104.625 31.0789 102.037 34.3939 100.857C36.1104 100.245 40.0212 100.268 42.1559 100.9C45.5068 101.893 47.4092 104.81 47.1703 108.591L47.065 110.26L29.6117 110.26L29.511 108.139L29.511 108.139ZM97.8726 100.884C94.6333 101.919 92.7094 104.926 92.9415 108.592L93.0468 110.262L110.5 110.262L110.5 107.724C110.5 105.521 110.379 105.004 109.584 103.807C109.081 103.047 107.956 102.009 107.084 101.5C105.718 100.701 105.078 100.56 102.461 100.48C100.467 100.421 98.8912 100.559 97.8726 100.884L97.8726 100.884ZM64.5978 110.5L61.3292 110.404L61.3292 108.093C61.3292 105.418 61.6894 104.27 62.945 102.944C64.7641 101.024 66.1797 100.547 70.0558 100.547C73.9318 100.547 75.3477 101.024 77.1665 102.944C78.4221 104.27 78.7823 105.418 78.7823 108.093L78.7823 110.404L75.5139 110.5L64.5978 110.5L64.5978 110.5Z" id="Вектор" fill="#D7FF00" stroke="none" filter="url(#filter_1)" />
</svg>