<?xml version="1.0" encoding="utf-8"?>
<svg width="15.840022px" height="19.870344px" viewBox="0 0 15.840022 19.870344" version="1.1" xmlns:xlink="http://www.w3.org/1999/xlink" xmlns="http://www.w3.org/2000/svg">
  <path d="M7.92101 10.619L7.88902 10.619C4.96702 10.61 2.60001 8.227 2.61001 5.307C2.61001 2.382 4.99201 0 7.92101 0C10.849 0 13.23 2.382 13.23 5.31C13.23 8.238 10.849 10.619 7.92101 10.619L7.92101 10.619ZM7.92101 1.428C5.78001 1.428 4.03801 3.169 4.03801 5.31C4.03101 7.444 5.76001 9.184 7.89201 9.19201L7.92101 9.906L7.92101 9.19201C10.061 9.19201 11.802 7.45 11.802 5.31C11.802 3.169 10.061 1.428 7.92101 1.428L7.92101 1.428ZM7.921 19.8703C5.962 19.8703 0 19.8703 0 16.1733C0 12.8773 4.521 12.4963 7.921 12.4963C9.88 12.4963 15.84 12.4963 15.84 16.1933C15.84 19.4893 11.32 19.8703 7.921 19.8703L7.921 19.8703ZM7.921 13.9963C3.66 13.9963 1.5 14.7283 1.5 16.1733C1.5 17.6313 3.66 18.3703 7.921 18.3703C12.181 18.3703 14.34 17.6383 14.34 16.1933C14.34 14.7353 12.181 13.9963 7.921 13.9963L7.921 13.9963Z" id="Вектор" fill="#D7FF00" fill-rule="evenodd" stroke="none" />
</svg>