<?xml version="1.0" encoding="utf-8"?>
<svg width="141px" height="141px" viewBox="0 0 141 141" version="1.1" xmlns:xlink="http://www.w3.org/1999/xlink" xmlns="http://www.w3.org/2000/svg">
  <defs>
    <filter filterUnits="userSpaceOnUse" color-interpolation-filters="sRGB" id="filter_1">
      <feFlood flood-opacity="0" result="BackgroundImageFix" />
      <feColorMatrix in="SourceAlpha" type="matrix" values="0 0 0 0 0 0 0 0 0 0 0 0 0 0 0 0 0 0 128 0" />
      <feOffset dx="0" dy="0" />
      <feGaussianBlur stdDeviation="9.5" />
      <feColorMatrix type="matrix" values="0 0 0 0 0.84313726 0 0 0 0 1 0 0 0 0 0 0 0 0 0.16078432 0" />
      <feBlend mode="normal" in2="BackgroundImageFix" result="effect0_dropShadow" />
      <feBlend mode="normal" in="SourceGraphic" in2="effect0_dropShadow" result="shape" />
    </filter>
  </defs>
  <path d="M47.3403 29.8623C45.8591 30.3124 44.114 31.2914 43.5245 32.001C43.2293 32.3569 42.3521 33.049 41.5751 33.5396C39.7442 34.6949 39.1427 36.6463 39.7387 39.4979C40.1407 41.4208 40.7134 42.759 40.9823 42.402C41.0562 42.3046 41.5781 41.6552 42.1418 40.9609C42.9708 39.9392 43.1666 39.3095 43.1666 37.6614C43.1666 36.5423 43.3194 35.5315 43.5061 35.4166C43.6926 35.3005 44.8228 35.6542 46.0173 36.2006C48.2679 37.2311 49.1766 37.2607 54.7946 36.4854C56.1465 36.2992 56.5287 36.4174 57.5744 37.3515C58.303 38.0031 59.0685 39.2657 59.4948 40.5185L60.2034 42.6035L60.8397 41.0879C62.167 37.9265 60.8966 33.947 57.8569 31.7448C55.2045 29.824 50.3334 28.9512 47.3403 29.8623L47.3403 29.8623ZM86.6385 30.0921C85.8054 30.4085 84.5169 31.2616 83.7752 31.9854C83.0335 32.7104 82.2499 33.3028 82.0339 33.3028C81.8181 33.3028 81.2503 33.7189 80.772 34.2281C79.5988 35.4765 79.3614 37.9426 80.1516 40.6617L80.7786 42.8168L81.6569 41.7611C83.0417 40.0956 83.4072 39.1713 83.4072 37.336C83.4072 36.3953 83.5652 35.528 83.7582 35.4086C83.9512 35.2893 84.9164 35.62 85.9026 36.1456C87.9191 37.2166 89.9098 37.3535 93.3018 36.6526C96.7951 35.931 98.6501 37.1279 99.7526 40.8128C100.29 42.6076 100.6 42.4412 101.276 39.9981C102.718 34.7877 97.9254 29.9223 91.0701 29.6365C89.1125 29.5544 87.6548 29.7044 86.6385 30.0921L86.6385 30.0921ZM44.9255 39.4103C44.79 40.087 44.23 41.2303 43.6814 41.9497C43.0911 42.724 42.6075 43.9395 42.4956 44.9316C42.2582 47.0364 41.7561 47.3605 40.676 46.1045C39.7607 45.0411 39.3697 45.12 39.3719 46.3684C39.3741 47.6617 40.8153 49.6339 42.1728 50.2011C42.9553 50.5275 43.6239 51.1736 43.9201 51.8897C44.6613 53.6791 47.1202 55.982 48.8399 56.4967C51.7558 57.3706 55.1831 55.5024 56.804 52.1536C57.377 50.9698 57.941 50.4114 58.9215 50.0577C60.4482 49.5057 61.3897 48.0066 61.387 46.134L61.3851 44.8813L60.4394 46.0201C59.5195 47.1284 59.4784 47.1382 58.9229 46.422C58.6088 46.0168 58.3509 45.0773 58.3495 44.3337C58.3466 42.3615 57.6807 40.2809 56.6791 39.1168L55.8013 38.0962L53.1168 38.6021C50.6511 39.0675 48.0237 38.9963 45.9725 38.4072C45.3028 38.2155 45.1317 38.3798 44.9255 39.4103L44.9255 39.4103ZM85.1212 39.3519C84.978 40.0023 84.4269 41.0514 83.8957 41.6822C83.2758 42.4181 82.8602 43.4683 82.734 44.6148C82.4862 46.8739 81.9778 47.197 80.6586 45.9333L79.6108 44.9291L79.6108 46.1588C79.6108 48.0106 80.559 49.5087 82.0786 50.0584C83.0587 50.4121 83.6227 50.9706 84.196 52.1544C85.8123 55.4933 89.2442 57.3713 92.1423 56.5029C93.9146 55.9718 95.9839 54.0401 97.0793 51.8937C97.5021 51.0648 98.0781 50.3858 98.3588 50.3858C99.9879 50.3858 102.369 46.4184 101.351 45.4011C101.063 45.1131 100.875 45.2171 100.704 45.7581C100.405 46.6987 99.5281 47.0787 99.0512 46.4731C98.856 46.2245 98.5806 44.9959 98.4401 43.7431C98.163 41.277 97.2543 39.0847 96.2588 38.4813C95.8328 38.2229 94.7858 38.2623 92.9755 38.6039C90.4957 39.0715 88.1312 39.0069 86.1972 38.4189C85.5119 38.2097 85.3391 38.3597 85.1212 39.3519L85.1212 39.3519ZM46.0308 60.4075C45.7083 60.0855 45.4443 59.2172 45.4443 58.4791C45.4443 57.3468 45.5481 57.1814 46.1086 57.419C50.0303 59.0814 50.7288 59.0814 54.6503 57.419C55.2203 57.177 55.3146 57.3566 55.3146 58.686C55.3146 60.022 55.1582 60.3166 54.1821 60.8214C51.7435 62.0819 47.4899 61.8661 46.0308 60.4075L46.0308 60.4075ZM86.8173 60.8214C85.8416 60.3166 85.6849 60.022 85.6849 58.686C85.6849 57.3566 85.7791 57.177 86.3494 57.419C90.2709 59.0814 90.9694 59.0814 94.8912 57.419C95.4517 57.1814 95.5554 57.3468 95.5554 58.4791C95.5554 59.2172 95.2915 60.0855 94.9687 60.4075C93.5099 61.8661 89.2563 62.0819 86.8173 60.8214L86.8173 60.8214ZM62.6588 62.24C63.5883 61.0891 66.0445 59.8669 68.1915 59.4859C69.1482 59.3161 70.6992 59.257 71.6389 59.3534C79.9402 60.2086 84.5693 66.3158 81.8163 72.7822L81.2506 74.1106L80.6223 71.9697C79.9118 69.5485 78.3487 67.642 76.7457 67.2401C76.1499 67.09 74.7045 67.1656 73.5327 67.4076C70.1588 68.1041 67.8989 67.954 65.5911 66.8809C63.1327 65.7354 62.3436 65.8833 62.653 67.4295C62.9416 68.8717 62.3264 70.9907 61.2408 72.296C60.7578 72.8764 60.2713 73.6079 60.1591 73.9211C59.7913 74.9472 58.6365 71.5809 58.4659 68.9856C58.2797 66.157 59.0797 64.3874 60.9133 63.5705C61.4877 63.3153 62.2733 62.7163 62.6588 62.24L62.6588 62.24ZM83.9142 72.4136C84.9059 69.4942 84.6113 66.6086 83.0373 63.8206L81.8367 61.6929L83.4762 61.8834C84.3781 61.9885 86.1407 62.4507 87.3934 62.9117C90.0549 63.8907 92.1836 63.7834 95.1173 62.5219C96.7789 61.8068 97.5705 61.7246 101.753 61.8363C106.322 61.9579 106.565 62.0061 108.147 63.1066C110.833 64.9748 111.5 66.7653 111.5 72.1026L111.5 76.5782L84.3561 76.576L83.7787 75.5444C83.2542 74.6071 83.2665 74.3224 83.9142 72.4136L83.9142 72.4136ZM33.8656 62.4911C30.4594 64.0626 29.5 66.1969 29.5 72.2L29.5 76.5782L43.0719 76.576L56.6435 76.5727L57.2453 75.5148C57.7715 74.5895 57.7817 74.2675 57.3258 72.9546C55.8736 68.7725 56.457 64.6944 58.7881 62.7332L59.9285 61.7739L58.2394 61.7739C57.3055 61.7739 55.7225 62.1495 54.6987 62.6149C52.1727 63.7625 48.5866 63.7625 46.0606 62.6149C43.5444 61.4716 36.2353 61.3972 33.8656 62.4911L33.8656 62.4911ZM64.6292 68.908C64.5172 69.0197 64.4258 69.4314 64.4258 69.8223C64.4258 70.7236 63.1507 73.2455 62.3655 73.896C61.9707 74.2245 61.7683 75.0239 61.7683 76.2559C61.7683 78.5829 60.9256 79.1261 59.7007 77.5897C58.6523 76.2756 58.3517 76.3117 58.3517 77.7529C58.3517 79.7218 59.4044 81.4192 61.0852 82.1605C62.1558 82.6325 62.829 83.2797 63.3665 84.3539C66.8053 91.219 74.1533 91.1456 77.6926 84.2083C78.1614 83.2896 78.9014 82.6073 79.9142 82.1605C81.5953 81.4192 82.648 79.7218 82.648 77.7529C82.648 76.3106 82.478 76.2931 81.3275 77.6204C80.1475 78.9826 79.7984 78.5698 79.3225 75.2484C78.5327 69.738 77.3545 68.5148 73.5863 69.2934C70.7742 69.8738 68.0198 69.842 66.2427 69.2069C65.4675 68.9309 64.7411 68.7963 64.6292 68.908L64.6292 68.908ZM66.4187 93.9265C65.3098 93.3275 65.185 93.0887 65.185 91.5622C65.185 90.6281 65.2518 89.8638 65.3334 89.8638C65.4153 89.8638 66.2265 90.201 67.1368 90.615C68.0467 91.0278 69.5602 91.3651 70.4999 91.3651C71.4395 91.3651 72.953 91.0278 73.8631 90.615C74.7735 90.201 75.5847 89.8638 75.6663 89.8638C75.7479 89.8638 75.8147 90.6281 75.8147 91.5622C75.8147 93.0887 75.6899 93.3275 74.581 93.9265C73.7169 94.3941 72.4936 94.5934 70.4999 94.5934C68.5061 94.5934 67.2828 94.3941 66.4187 93.9265L66.4187 93.9265ZM54.2457 94.8243C51.3654 95.3904 48.999 97.263 47.9301 99.82C47.4977 100.855 47.3425 102.585 47.3425 106.363L47.3425 111.5L93.6575 111.5L93.649 106.281C93.6395 100.352 93.1913 98.7885 90.959 96.9071C88.8604 95.1375 87.3584 94.7082 82.5533 94.5034C78.2501 94.3206 78.0106 94.3523 75.7203 95.4036C72.3959 96.9312 68.6165 96.9509 65.4241 95.4594C63.4478 94.5363 62.7803 94.4224 59.5397 94.4596C57.5292 94.4826 55.147 94.6458 54.2457 94.8243L54.2457 94.8243Z" id="Вектор" fill="#D7FF00" stroke="none" filter="url(#filter_1)" />
</svg>